<svg xmlns="http://www.w3.org/2000/svg" xmlns:xlink="http://www.w3.org/1999/xlink" xmlns:inkscape="http://www.inkscape.org/namespaces/inkscape" version="1.1" width="1000.855" height="856.35317" viewBox="0 0 1000.855 856.35317">
<defs>
<clipPath id="clip_1">
<path transform="matrix(1,0,0,-1,0,856.35317)" d="M97.575 80.15312H993.655V849.15316H97.575Z"/>
</clipPath>
<clipPath id="clip_2">
<path transform="matrix(1,0,0,-1,0,856.35317)" d="M97.575 80.15312H993.655V849.15316H97.575Z"/>
</clipPath>
<clipPath id="clip_3">
<path transform="matrix(1,0,0,-1,0,856.35317)" d="M97.575 80.15312H993.655V849.15316H97.575Z"/>
</clipPath>
<clipPath id="clip_4">
<path transform="matrix(1,0,0,-1,0,856.35317)" d="M97.575 80.15312H993.655V849.15316H97.575Z"/>
</clipPath>
<clipPath id="clip_5">
<path transform="matrix(1,0,0,-1,0,856.35317)" d="M97.575 80.15312H993.655V849.15316H97.575Z"/>
</clipPath>
<clipPath id="clip_6">
<path transform="matrix(1,0,0,-1,0,856.35317)" d="M97.575 80.15312H993.655V849.15316H97.575Z"/>
</clipPath>
<clipPath id="clip_7">
<path transform="matrix(1,0,0,-1,0,856.35317)" d="M97.575 80.15312H993.655V849.15316H97.575Z"/>
</clipPath>
<clipPath id="clip_8">
<path transform="matrix(1,0,0,-1,0,856.35317)" d="M97.575 80.15312H993.655V849.15316H97.575Z"/>
</clipPath>
<clipPath id="clip_9">
<path transform="matrix(1,0,0,-1,0,856.35317)" d="M97.575 80.15312H993.655V849.15316H97.575Z"/>
</clipPath>
<clipPath id="clip_10">
<path transform="matrix(1,0,0,-1,0,856.35317)" d="M97.575 80.15312H993.655V849.15316H97.575Z"/>
</clipPath>
<clipPath id="clip_11">
<path transform="matrix(1,0,0,-1,0,856.35317)" d="M97.575 80.15312H993.655V849.15316H97.575Z"/>
</clipPath>
<clipPath id="clip_12">
<path transform="matrix(1,0,0,-1,0,856.35317)" d="M97.575 80.15312H993.655V849.15316H97.575Z"/>
</clipPath>
<clipPath id="clip_13">
<path transform="matrix(1,0,0,-1,0,856.35317)" d="M97.575 80.15312H993.655V849.15316H97.575Z"/>
</clipPath>
<clipPath id="clip_14">
<path transform="matrix(1,0,0,-1,0,856.35317)" d="M97.575 80.15312H993.655V849.15316H97.575Z"/>
</clipPath>
<clipPath id="clip_15">
<path transform="matrix(1,0,0,-1,138.30591,520.98397)" d="M-9-9H9V9H-9Z"/>
</clipPath>
<clipPath id="clip_16">
<path transform="matrix(1,0,0,-1,154.93077,406.06489)" d="M-9-9H9V9H-9Z"/>
</clipPath>
<clipPath id="clip_17">
<path transform="matrix(1,0,0,-1,171.55564,339.02876)" d="M-9-9H9V9H-9Z"/>
</clipPath>
<clipPath id="clip_18">
<path transform="matrix(1,0,0,-1,188.1805,310.29899)" d="M-9-9H9V9H-9Z"/>
</clipPath>
<clipPath id="clip_19">
<path transform="matrix(1,0,0,-1,204.80536,291.1458)" d="M-9-9H9V9H-9Z"/>
</clipPath>
<clipPath id="clip_20">
<path transform="matrix(1,0,0,-1,221.43022,271.99266)" d="M-9-9H9V9H-9Z"/>
</clipPath>
<clipPath id="clip_21">
<path transform="matrix(1,0,0,-1,238.05509,243.26288)" d="M-9-9H9V9H-9Z"/>
</clipPath>
<clipPath id="clip_22">
<path transform="matrix(1,0,0,-1,254.67995,224.10971)" d="M-9-9H9V9H-9Z"/>
</clipPath>
<clipPath id="clip_23">
<path transform="matrix(1,0,0,-1,271.3048,214.53313)" d="M-9-9H9V9H-9Z"/>
</clipPath>
<clipPath id="clip_24">
<path transform="matrix(1,0,0,-1,287.92967,204.95655)" d="M-9-9H9V9H-9Z"/>
</clipPath>
<clipPath id="clip_25">
<path transform="matrix(1,0,0,-1,304.5545,185.80338)" d="M-9-9H9V9H-9Z"/>
</clipPath>
<clipPath id="clip_26">
<path transform="matrix(1,0,0,-1,321.17936,185.80338)" d="M-9-9H9V9H-9Z"/>
</clipPath>
<clipPath id="clip_27">
<path transform="matrix(1,0,0,-1,337.8042,185.80338)" d="M-9-9H9V9H-9Z"/>
</clipPath>
<clipPath id="clip_28">
<path transform="matrix(1,0,0,-1,354.42906,176.22679)" d="M-9-9H9V9H-9Z"/>
</clipPath>
<clipPath id="clip_29">
<path transform="matrix(1,0,0,-1,371.0539,166.6502)" d="M-9-9H9V9H-9Z"/>
</clipPath>
<clipPath id="clip_30">
<path transform="matrix(1,0,0,-1,387.67875,157.07363)" d="M-9-9H9V9H-9Z"/>
</clipPath>
<clipPath id="clip_31">
<path transform="matrix(1,0,0,-1,404.3036,157.07363)" d="M-9-9H9V9H-9Z"/>
</clipPath>
<clipPath id="clip_32">
<path transform="matrix(1,0,0,-1,420.92845,147.49704)" d="M-9-9H9V9H-9Z"/>
</clipPath>
<clipPath id="clip_33">
<path transform="matrix(1,0,0,-1,437.55329,147.49704)" d="M-9-9H9V9H-9Z"/>
</clipPath>
<clipPath id="clip_34">
<path transform="matrix(1,0,0,-1,454.17814,147.49704)" d="M-9-9H9V9H-9Z"/>
</clipPath>
<clipPath id="clip_35">
<path transform="matrix(1,0,0,-1,470.80299,137.92046)" d="M-9-9H9V9H-9Z"/>
</clipPath>
<clipPath id="clip_36">
<path transform="matrix(1,0,0,-1,487.42784,118.76728)" d="M-9-9H9V9H-9Z"/>
</clipPath>
<clipPath id="clip_37">
<path transform="matrix(1,0,0,-1,504.05268,118.76728)" d="M-9-9H9V9H-9Z"/>
</clipPath>
<clipPath id="clip_38">
<path transform="matrix(1,0,0,-1,520.67758,109.19069)" d="M-9-9H9V9H-9Z"/>
</clipPath>
<clipPath id="clip_39">
<path transform="matrix(1,0,0,-1,537.3024,109.19069)" d="M-9-9H9V9H-9Z"/>
</clipPath>
<clipPath id="clip_40">
<path transform="matrix(1,0,0,-1,553.9273,109.19069)" d="M-9-9H9V9H-9Z"/>
</clipPath>
<clipPath id="clip_41">
<path transform="matrix(1,0,0,-1,570.5522,109.19069)" d="M-9-9H9V9H-9Z"/>
</clipPath>
<clipPath id="clip_42">
<path transform="matrix(1,0,0,-1,587.17709,109.19069)" d="M-9-9H9V9H-9Z"/>
</clipPath>
<clipPath id="clip_43">
<path transform="matrix(1,0,0,-1,603.80197,99.614109)" d="M-9-9H9V9H-9Z"/>
</clipPath>
<clipPath id="clip_44">
<path transform="matrix(1,0,0,-1,620.4268,90.03752)" d="M-9-9H9V9H-9Z"/>
</clipPath>
<clipPath id="clip_45">
<path transform="matrix(1,0,0,-1,637.0517,90.03752)" d="M-9-9H9V9H-9Z"/>
</clipPath>
<clipPath id="clip_46">
<path transform="matrix(1,0,0,-1,653.6766,90.03752)" d="M-9-9H9V9H-9Z"/>
</clipPath>
<clipPath id="clip_47">
<path transform="matrix(1,0,0,-1,670.30148,90.03752)" d="M-9-9H9V9H-9Z"/>
</clipPath>
<clipPath id="clip_48">
<path transform="matrix(1,0,0,-1,686.92636,90.03752)" d="M-9-9H9V9H-9Z"/>
</clipPath>
<clipPath id="clip_49">
<path transform="matrix(1,0,0,-1,703.5512,80.46094)" d="M-9-9H9V9H-9Z"/>
</clipPath>
<clipPath id="clip_50">
<path transform="matrix(1,0,0,-1,720.1761,80.46094)" d="M-9-9H9V9H-9Z"/>
</clipPath>
<clipPath id="clip_51">
<path transform="matrix(1,0,0,-1,736.80099,80.46094)" d="M-9-9H9V9H-9Z"/>
</clipPath>
<clipPath id="clip_52">
<path transform="matrix(1,0,0,-1,753.42587,61.307764)" d="M-9-9H9V9H-9Z"/>
</clipPath>
<clipPath id="clip_53">
<path transform="matrix(1,0,0,-1,770.0507,61.307764)" d="M-9-9H9V9H-9Z"/>
</clipPath>
<clipPath id="clip_54">
<path transform="matrix(1,0,0,-1,786.6756,61.307764)" d="M-9-9H9V9H-9Z"/>
</clipPath>
<clipPath id="clip_55">
<path transform="matrix(1,0,0,-1,803.3005,51.731176)" d="M-9-9H9V9H-9Z"/>
</clipPath>
<clipPath id="clip_56">
<path transform="matrix(1,0,0,-1,819.92538,51.731176)" d="M-9-9H9V9H-9Z"/>
</clipPath>
<clipPath id="clip_57">
<path transform="matrix(1,0,0,-1,836.55026,51.731176)" d="M-9-9H9V9H-9Z"/>
</clipPath>
<clipPath id="clip_58">
<path transform="matrix(1,0,0,-1,853.1751,51.731176)" d="M-9-9H9V9H-9Z"/>
</clipPath>
<clipPath id="clip_59">
<path transform="matrix(1,0,0,-1,869.8,42.154588)" d="M-9-9H9V9H-9Z"/>
</clipPath>
<clipPath id="clip_60">
<path transform="matrix(1,0,0,-1,886.42489,42.154588)" d="M-9-9H9V9H-9Z"/>
</clipPath>
<clipPath id="clip_61">
<path transform="matrix(1,0,0,-1,903.04977,42.154588)" d="M-9-9H9V9H-9Z"/>
</clipPath>
<clipPath id="clip_62">
<path transform="matrix(1,0,0,-1,919.6746,42.154588)" d="M-9-9H9V9H-9Z"/>
</clipPath>
<clipPath id="clip_63">
<path transform="matrix(1,0,0,-1,936.2995,42.154588)" d="M-9-9H9V9H-9Z"/>
</clipPath>
<clipPath id="clip_64">
<path transform="matrix(1,0,0,-1,952.9244,42.154588)" d="M-9-9H9V9H-9Z"/>
</clipPath>
<clipPath id="clip_65">
<path transform="matrix(1,0,0,-1,0,856.35317)" d="M97.575 80.15312H993.655V849.15316H97.575Z"/>
</clipPath>
<clipPath id="clip_66">
<path transform="matrix(1,0,0,-1,138.30591,741.2455)" d="M-9-9H9V9H-9Z"/>
</clipPath>
<clipPath id="clip_67">
<path transform="matrix(1,0,0,-1,154.93077,635.903)" d="M-9-9H9V9H-9Z"/>
</clipPath>
<clipPath id="clip_68">
<path transform="matrix(1,0,0,-1,171.55564,607.1733)" d="M-9-9H9V9H-9Z"/>
</clipPath>
<clipPath id="clip_69">
<path transform="matrix(1,0,0,-1,188.1805,588.0201)" d="M-9-9H9V9H-9Z"/>
</clipPath>
<clipPath id="clip_70">
<path transform="matrix(1,0,0,-1,204.80536,530.56057)" d="M-9-9H9V9H-9Z"/>
</clipPath>
<clipPath id="clip_71">
<path transform="matrix(1,0,0,-1,221.43022,492.2542)" d="M-9-9H9V9H-9Z"/>
</clipPath>
<clipPath id="clip_72">
<path transform="matrix(1,0,0,-1,238.05509,463.52445)" d="M-9-9H9V9H-9Z"/>
</clipPath>
<clipPath id="clip_73">
<path transform="matrix(1,0,0,-1,254.67995,463.52445)" d="M-9-9H9V9H-9Z"/>
</clipPath>
<clipPath id="clip_74">
<path transform="matrix(1,0,0,-1,271.3048,444.37129)" d="M-9-9H9V9H-9Z"/>
</clipPath>
<clipPath id="clip_75">
<path transform="matrix(1,0,0,-1,287.92967,444.37129)" d="M-9-9H9V9H-9Z"/>
</clipPath>
<clipPath id="clip_76">
<path transform="matrix(1,0,0,-1,304.5545,444.37129)" d="M-9-9H9V9H-9Z"/>
</clipPath>
<clipPath id="clip_77">
<path transform="matrix(1,0,0,-1,321.17936,444.37129)" d="M-9-9H9V9H-9Z"/>
</clipPath>
<clipPath id="clip_78">
<path transform="matrix(1,0,0,-1,337.8042,444.37129)" d="M-9-9H9V9H-9Z"/>
</clipPath>
<clipPath id="clip_79">
<path transform="matrix(1,0,0,-1,354.42906,444.37129)" d="M-9-9H9V9H-9Z"/>
</clipPath>
<clipPath id="clip_80">
<path transform="matrix(1,0,0,-1,371.0539,425.2181)" d="M-9-9H9V9H-9Z"/>
</clipPath>
<clipPath id="clip_81">
<path transform="matrix(1,0,0,-1,387.67875,415.6415)" d="M-9-9H9V9H-9Z"/>
</clipPath>
<clipPath id="clip_82">
<path transform="matrix(1,0,0,-1,404.3036,415.6415)" d="M-9-9H9V9H-9Z"/>
</clipPath>
<clipPath id="clip_83">
<path transform="matrix(1,0,0,-1,420.92845,415.6415)" d="M-9-9H9V9H-9Z"/>
</clipPath>
<clipPath id="clip_84">
<path transform="matrix(1,0,0,-1,437.55329,406.0649)" d="M-9-9H9V9H-9Z"/>
</clipPath>
<clipPath id="clip_85">
<path transform="matrix(1,0,0,-1,454.17814,377.33515)" d="M-9-9H9V9H-9Z"/>
</clipPath>
<clipPath id="clip_86">
<path transform="matrix(1,0,0,-1,470.80299,358.18199)" d="M-9-9H9V9H-9Z"/>
</clipPath>
<clipPath id="clip_87">
<path transform="matrix(1,0,0,-1,487.42784,358.18199)" d="M-9-9H9V9H-9Z"/>
</clipPath>
<clipPath id="clip_88">
<path transform="matrix(1,0,0,-1,504.05268,348.60539)" d="M-9-9H9V9H-9Z"/>
</clipPath>
<clipPath id="clip_89">
<path transform="matrix(1,0,0,-1,520.67758,348.60539)" d="M-9-9H9V9H-9Z"/>
</clipPath>
<clipPath id="clip_90">
<path transform="matrix(1,0,0,-1,537.3024,329.4522)" d="M-9-9H9V9H-9Z"/>
</clipPath>
<clipPath id="clip_91">
<path transform="matrix(1,0,0,-1,553.9273,319.8756)" d="M-9-9H9V9H-9Z"/>
</clipPath>
<clipPath id="clip_92">
<path transform="matrix(1,0,0,-1,570.5522,319.8756)" d="M-9-9H9V9H-9Z"/>
</clipPath>
<clipPath id="clip_93">
<path transform="matrix(1,0,0,-1,587.17709,319.8756)" d="M-9-9H9V9H-9Z"/>
</clipPath>
<clipPath id="clip_94">
<path transform="matrix(1,0,0,-1,603.80197,310.299)" d="M-9-9H9V9H-9Z"/>
</clipPath>
<clipPath id="clip_95">
<path transform="matrix(1,0,0,-1,620.4268,300.7224)" d="M-9-9H9V9H-9Z"/>
</clipPath>
<clipPath id="clip_96">
<path transform="matrix(1,0,0,-1,637.0517,300.7224)" d="M-9-9H9V9H-9Z"/>
</clipPath>
<clipPath id="clip_97">
<path transform="matrix(1,0,0,-1,653.6766,300.7224)" d="M-9-9H9V9H-9Z"/>
</clipPath>
<clipPath id="clip_98">
<path transform="matrix(1,0,0,-1,670.30148,291.1458)" d="M-9-9H9V9H-9Z"/>
</clipPath>
<clipPath id="clip_99">
<path transform="matrix(1,0,0,-1,686.92636,281.5692)" d="M-9-9H9V9H-9Z"/>
</clipPath>
<clipPath id="clip_100">
<path transform="matrix(1,0,0,-1,703.5512,281.5692)" d="M-9-9H9V9H-9Z"/>
</clipPath>
<clipPath id="clip_101">
<path transform="matrix(1,0,0,-1,720.1761,271.9926)" d="M-9-9H9V9H-9Z"/>
</clipPath>
<clipPath id="clip_102">
<path transform="matrix(1,0,0,-1,736.80099,271.9926)" d="M-9-9H9V9H-9Z"/>
</clipPath>
<clipPath id="clip_103">
<path transform="matrix(1,0,0,-1,753.42587,252.83945)" d="M-9-9H9V9H-9Z"/>
</clipPath>
<clipPath id="clip_104">
<path transform="matrix(1,0,0,-1,770.0507,252.83945)" d="M-9-9H9V9H-9Z"/>
</clipPath>
<clipPath id="clip_105">
<path transform="matrix(1,0,0,-1,786.6756,252.83945)" d="M-9-9H9V9H-9Z"/>
</clipPath>
<clipPath id="clip_106">
<path transform="matrix(1,0,0,-1,803.3005,252.83945)" d="M-9-9H9V9H-9Z"/>
</clipPath>
<clipPath id="clip_107">
<path transform="matrix(1,0,0,-1,819.92538,252.83945)" d="M-9-9H9V9H-9Z"/>
</clipPath>
<clipPath id="clip_108">
<path transform="matrix(1,0,0,-1,836.55026,252.83945)" d="M-9-9H9V9H-9Z"/>
</clipPath>
<clipPath id="clip_109">
<path transform="matrix(1,0,0,-1,853.1751,252.83945)" d="M-9-9H9V9H-9Z"/>
</clipPath>
<clipPath id="clip_110">
<path transform="matrix(1,0,0,-1,869.8,243.26287)" d="M-9-9H9V9H-9Z"/>
</clipPath>
<clipPath id="clip_111">
<path transform="matrix(1,0,0,-1,886.42489,243.26287)" d="M-9-9H9V9H-9Z"/>
</clipPath>
<clipPath id="clip_112">
<path transform="matrix(1,0,0,-1,903.04977,224.10968)" d="M-9-9H9V9H-9Z"/>
</clipPath>
<clipPath id="clip_113">
<path transform="matrix(1,0,0,-1,919.6746,214.5331)" d="M-9-9H9V9H-9Z"/>
</clipPath>
<clipPath id="clip_114">
<path transform="matrix(1,0,0,-1,936.2995,214.5331)" d="M-9-9H9V9H-9Z"/>
</clipPath>
<clipPath id="clip_115">
<path transform="matrix(1,0,0,-1,952.9244,214.5331)" d="M-9-9H9V9H-9Z"/>
</clipPath>
</defs>
<path transform="matrix(1,0,0,-1,0,856.35317)" d="M0 0H1000.855V856.35317H0Z" fill="#ffffff"/>
<path transform="matrix(1,0,0,-1,0,856.35317)" d="M97.575 80.15312H993.655V849.15316H97.575Z" fill="#ffffff"/>
<g clip-path="url(#clip_1)">
<path transform="matrix(1,0,0,-1,0,856.35317)" stroke-width="1" stroke-linecap="butt" stroke-dasharray="1,1.65" stroke-linejoin="round" fill="none" stroke="#b0b0b0" d="M121.681049 80.15312V849.15316"/>
</g>
<path transform="matrix(1,0,0,-1,0,856.35317)" d="M121.681049 80.15312V76.65312"/>
<path transform="matrix(1,0,0,-1,0,856.35317)" stroke-width=".8" stroke-linecap="butt" stroke-linejoin="round" fill="none" stroke="#000000" d="M121.681049 80.15312V76.65312"/>
<text xml:space="preserve" transform="matrix(1 0 -0 1 112.774799 804.48129)" font-size="28" font-family="DejaVuSans"><tspan y="0" x="0">0</tspan></text>
<g clip-path="url(#clip_2)">
<path transform="matrix(1,0,0,-1,0,856.35317)" stroke-width="1" stroke-linecap="butt" stroke-dasharray="1,1.65" stroke-linejoin="round" fill="none" stroke="#b0b0b0" d="M287.92967 80.15312V849.15316"/>
</g>
<path transform="matrix(1,0,0,-1,0,856.35317)" d="M287.92967 80.15312V76.65312"/>
<path transform="matrix(1,0,0,-1,0,856.35317)" stroke-width=".8" stroke-linecap="butt" stroke-linejoin="round" fill="none" stroke="#000000" d="M287.92967 80.15312V76.65312"/>
<text xml:space="preserve" transform="matrix(1 0 -0 1 270.11717 804.48129)" font-size="28" font-family="DejaVuSans"><tspan y="0" x="0 17.808">10</tspan></text>
<g clip-path="url(#clip_3)">
<path transform="matrix(1,0,0,-1,0,856.35317)" stroke-width="1" stroke-linecap="butt" stroke-dasharray="1,1.65" stroke-linejoin="round" fill="none" stroke="#b0b0b0" d="M454.17826 80.15312V849.15316"/>
</g>
<path transform="matrix(1,0,0,-1,0,856.35317)" d="M454.17826 80.15312V76.65312"/>
<path transform="matrix(1,0,0,-1,0,856.35317)" stroke-width=".8" stroke-linecap="butt" stroke-linejoin="round" fill="none" stroke="#000000" d="M454.17826 80.15312V76.65312"/>
<text xml:space="preserve" transform="matrix(1 0 -0 1 436.36576 804.48129)" font-size="28" font-family="DejaVuSans"><tspan y="0" x="0 17.808">20</tspan></text>
<g clip-path="url(#clip_4)">
<path transform="matrix(1,0,0,-1,0,856.35317)" stroke-width="1" stroke-linecap="butt" stroke-dasharray="1,1.65" stroke-linejoin="round" fill="none" stroke="#b0b0b0" d="M620.4269 80.15312V849.15316"/>
</g>
<path transform="matrix(1,0,0,-1,0,856.35317)" d="M620.4269 80.15312V76.65312"/>
<path transform="matrix(1,0,0,-1,0,856.35317)" stroke-width=".8" stroke-linecap="butt" stroke-linejoin="round" fill="none" stroke="#000000" d="M620.4269 80.15312V76.65312"/>
<text xml:space="preserve" transform="matrix(1 0 -0 1 602.6144 804.48129)" font-size="28" font-family="DejaVuSans"><tspan y="0" x="0 17.808">30</tspan></text>
<g clip-path="url(#clip_5)">
<path transform="matrix(1,0,0,-1,0,856.35317)" stroke-width="1" stroke-linecap="butt" stroke-dasharray="1,1.65" stroke-linejoin="round" fill="none" stroke="#b0b0b0" d="M786.6755 80.15312V849.15316"/>
</g>
<path transform="matrix(1,0,0,-1,0,856.35317)" d="M786.6755 80.15312V76.65312"/>
<path transform="matrix(1,0,0,-1,0,856.35317)" stroke-width=".8" stroke-linecap="butt" stroke-linejoin="round" fill="none" stroke="#000000" d="M786.6755 80.15312V76.65312"/>
<text xml:space="preserve" transform="matrix(1 0 -0 1 768.863 804.48129)" font-size="28" font-family="DejaVuSans"><tspan y="0" x="0 17.808">40</tspan></text>
<g clip-path="url(#clip_6)">
<path transform="matrix(1,0,0,-1,0,856.35317)" stroke-width="1" stroke-linecap="butt" stroke-dasharray="1,1.65" stroke-linejoin="round" fill="none" stroke="#b0b0b0" d="M952.9241 80.15312V849.15316"/>
</g>
<path transform="matrix(1,0,0,-1,0,856.35317)" d="M952.9241 80.15312V76.65312"/>
<path transform="matrix(1,0,0,-1,0,856.35317)" stroke-width=".8" stroke-linecap="butt" stroke-linejoin="round" fill="none" stroke="#000000" d="M952.9241 80.15312V76.65312"/>
<text xml:space="preserve" transform="matrix(1 0 -0 1 935.1116 804.48129)" font-size="28" font-family="DejaVuSans"><tspan y="0" x="0 17.808">50</tspan></text>
<text xml:space="preserve" transform="matrix(1 0 -0 1 500.6228 841.66879)" font-size="36" font-family="DejaVuSans"><tspan y="0" x="0 24.238753 46.306756 69.13075">Rank</tspan></text>
<g clip-path="url(#clip_7)">
<path transform="matrix(1,0,0,-1,0,856.35317)" stroke-width="1" stroke-linecap="butt" stroke-dasharray="1,1.65" stroke-linejoin="round" fill="none" stroke="#b0b0b0" d="M97.575 97.86981H993.655"/>
</g>
<path transform="matrix(1,0,0,-1,0,856.35317)" d="M97.575 97.86981H94.075"/>
<path transform="matrix(1,0,0,-1,0,856.35317)" stroke-width=".8" stroke-linecap="butt" stroke-linejoin="round" fill="none" stroke="#000000" d="M97.575 97.86981H94.075"/>
<text xml:space="preserve" transform="matrix(1 0 -0 1 46.04375 769.12399)" font-size="28" font-family="DejaVuSans"><tspan y="0" x="0 17.808 26.712002">0.4</tspan></text>
<g clip-path="url(#clip_8)">
<path transform="matrix(1,0,0,-1,0,856.35317)" stroke-width="1" stroke-linecap="butt" stroke-dasharray="1,1.65" stroke-linejoin="round" fill="none" stroke="#b0b0b0" d="M97.575 220.45014H993.655"/>
</g>
<path transform="matrix(1,0,0,-1,0,856.35317)" d="M97.575 220.45014H94.075"/>
<path transform="matrix(1,0,0,-1,0,856.35317)" stroke-width=".8" stroke-linecap="butt" stroke-linejoin="round" fill="none" stroke="#000000" d="M97.575 220.45014H94.075"/>
<text xml:space="preserve" transform="matrix(1 0 -0 1 46.04375 646.54367)" font-size="28" font-family="DejaVuSans"><tspan y="0" x="0 17.808 26.712002">0.5</tspan></text>
<g clip-path="url(#clip_9)">
<path transform="matrix(1,0,0,-1,0,856.35317)" stroke-width="1" stroke-linecap="butt" stroke-dasharray="1,1.65" stroke-linejoin="round" fill="none" stroke="#b0b0b0" d="M97.575 343.03047H993.655"/>
</g>
<path transform="matrix(1,0,0,-1,0,856.35317)" d="M97.575 343.03047H94.075"/>
<path transform="matrix(1,0,0,-1,0,856.35317)" stroke-width=".8" stroke-linecap="butt" stroke-linejoin="round" fill="none" stroke="#000000" d="M97.575 343.03047H94.075"/>
<text xml:space="preserve" transform="matrix(1 0 -0 1 46.04375 523.9633)" font-size="28" font-family="DejaVuSans"><tspan y="0" x="0 17.808 26.712002">0.6</tspan></text>
<g clip-path="url(#clip_10)">
<path transform="matrix(1,0,0,-1,0,856.35317)" stroke-width="1" stroke-linecap="butt" stroke-dasharray="1,1.65" stroke-linejoin="round" fill="none" stroke="#b0b0b0" d="M97.575 465.61079H993.655"/>
</g>
<path transform="matrix(1,0,0,-1,0,856.35317)" d="M97.575 465.61079H94.075"/>
<path transform="matrix(1,0,0,-1,0,856.35317)" stroke-width=".8" stroke-linecap="butt" stroke-linejoin="round" fill="none" stroke="#000000" d="M97.575 465.61079H94.075"/>
<text xml:space="preserve" transform="matrix(1 0 -0 1 46.04375 401.383)" font-size="28" font-family="DejaVuSans"><tspan y="0" x="0 17.808 26.712002">0.7</tspan></text>
<g clip-path="url(#clip_11)">
<path transform="matrix(1,0,0,-1,0,856.35317)" stroke-width="1" stroke-linecap="butt" stroke-dasharray="1,1.65" stroke-linejoin="round" fill="none" stroke="#b0b0b0" d="M97.575 588.1911H993.655"/>
</g>
<path transform="matrix(1,0,0,-1,0,856.35317)" d="M97.575 588.1911H94.075"/>
<path transform="matrix(1,0,0,-1,0,856.35317)" stroke-width=".8" stroke-linecap="butt" stroke-linejoin="round" fill="none" stroke="#000000" d="M97.575 588.1911H94.075"/>
<text xml:space="preserve" transform="matrix(1 0 -0 1 46.04375 278.80268)" font-size="28" font-family="DejaVuSans"><tspan y="0" x="0 17.808 26.712002">0.8</tspan></text>
<g clip-path="url(#clip_12)">
<path transform="matrix(1,0,0,-1,0,856.35317)" stroke-width="1" stroke-linecap="butt" stroke-dasharray="1,1.65" stroke-linejoin="round" fill="none" stroke="#b0b0b0" d="M97.575 710.7714H993.655"/>
</g>
<path transform="matrix(1,0,0,-1,0,856.35317)" d="M97.575 710.7714H94.075"/>
<path transform="matrix(1,0,0,-1,0,856.35317)" stroke-width=".8" stroke-linecap="butt" stroke-linejoin="round" fill="none" stroke="#000000" d="M97.575 710.7714H94.075"/>
<text xml:space="preserve" transform="matrix(1 0 -0 1 46.04375 156.22235)" font-size="28" font-family="DejaVuSans"><tspan y="0" x="0 17.808 26.712002">0.9</tspan></text>
<g clip-path="url(#clip_13)">
<path transform="matrix(1,0,0,-1,0,856.35317)" stroke-width="1" stroke-linecap="butt" stroke-dasharray="1,1.65" stroke-linejoin="round" fill="none" stroke="#b0b0b0" d="M97.575 833.35177H993.655"/>
</g>
<path transform="matrix(1,0,0,-1,0,856.35317)" d="M97.575 833.35177H94.075"/>
<path transform="matrix(1,0,0,-1,0,856.35317)" stroke-width=".8" stroke-linecap="butt" stroke-linejoin="round" fill="none" stroke="#000000" d="M97.575 833.35177H94.075"/>
<text xml:space="preserve" transform="matrix(1 0 -0 1 46.04375 33.64203)" font-size="28" font-family="DejaVuSans"><tspan y="0" x="0 17.808 26.712002">1.0</tspan></text>
<text xml:space="preserve" transform="matrix(0 -1 1 0 34.559377 487.54377)" font-size="36" font-family="DejaVuSans"><tspan y="0" x="0 25.128 56.196 81.324 92.771999 114.614749 136.68274 146.69074 169.51474">CMC Value</tspan></text>
<g clip-path="url(#clip_14)">
<path transform="matrix(1,0,0,-1,0,856.35317)" stroke-width="2" stroke-linecap="square" stroke-linejoin="round" fill="none" stroke="#000000" d="M138.30591 335.3692 154.93077 450.28825 171.55564 517.32437 188.1805 546.05416 204.80536 565.2073 221.4302 584.3605 238.05507 613.0902 254.67993 632.2434 271.3048 641.82 287.92967 651.3966 304.5545 670.54977H321.17939 337.80424L354.4291 680.12637 371.05397 689.70297 387.67884 699.27957H404.30369L420.92857 708.85617H437.5534 454.17826L470.80314 718.4327 487.42799 737.5859H504.05287L520.67776 747.1625H537.30258 553.9274 570.5523 587.1771L603.802 756.7391 620.4269 766.3156H637.05178 653.6766 670.30148 686.92636L703.5512 775.8922H720.176 736.8009L753.4258 795.0454H770.0506 786.6755L803.30038 804.622H819.92526 836.55007 853.1749L869.7998 814.1986H886.4246 903.0495 919.6744 936.29928 952.9241"/>
<g clip-path="url(#clip_15)">
<path transform="matrix(1,0,0,-1,138.30591,520.98397)" d="M0-4C1.060812-4 2.078319-3.578535 2.828427-2.828427 3.578535-2.078319 4-1.060812 4 0 4 1.060812 3.578535 2.078319 2.828427 2.828427 2.078319 3.578535 1.060812 4 0 4-1.060812 4-2.078319 3.578535-2.828427 2.828427-3.578535 2.078319-4 1.060812-4 0-4-1.060812-3.578535-2.078319-2.828427-2.828427-2.078319-3.578535-1.060812-4 0-4Z"/>
<path transform="matrix(1,0,0,-1,138.30591,520.98397)" stroke-width="1" stroke-linecap="butt" stroke-linejoin="round" fill="none" stroke="#000000" d="M0-4C1.060812-4 2.078319-3.578535 2.828427-2.828427 3.578535-2.078319 4-1.060812 4 0 4 1.060812 3.578535 2.078319 2.828427 2.828427 2.078319 3.578535 1.060812 4 0 4-1.060812 4-2.078319 3.578535-2.828427 2.828427-3.578535 2.078319-4 1.060812-4 0-4-1.060812-3.578535-2.078319-2.828427-2.828427-2.078319-3.578535-1.060812-4 0-4Z"/>
</g>
<g clip-path="url(#clip_16)">
<path transform="matrix(1,0,0,-1,154.93077,406.06489)" d="M0-4C1.060812-4 2.078319-3.578535 2.828427-2.828427 3.578535-2.078319 4-1.060812 4 0 4 1.060812 3.578535 2.078319 2.828427 2.828427 2.078319 3.578535 1.060812 4 0 4-1.060812 4-2.078319 3.578535-2.828427 2.828427-3.578535 2.078319-4 1.060812-4 0-4-1.060812-3.578535-2.078319-2.828427-2.828427-2.078319-3.578535-1.060812-4 0-4Z"/>
<path transform="matrix(1,0,0,-1,154.93077,406.06489)" stroke-width="1" stroke-linecap="butt" stroke-linejoin="round" fill="none" stroke="#000000" d="M0-4C1.060812-4 2.078319-3.578535 2.828427-2.828427 3.578535-2.078319 4-1.060812 4 0 4 1.060812 3.578535 2.078319 2.828427 2.828427 2.078319 3.578535 1.060812 4 0 4-1.060812 4-2.078319 3.578535-2.828427 2.828427-3.578535 2.078319-4 1.060812-4 0-4-1.060812-3.578535-2.078319-2.828427-2.828427-2.078319-3.578535-1.060812-4 0-4Z"/>
</g>
<g clip-path="url(#clip_17)">
<path transform="matrix(1,0,0,-1,171.55564,339.02876)" d="M0-4C1.060812-4 2.078319-3.578535 2.828427-2.828427 3.578535-2.078319 4-1.060812 4 0 4 1.060812 3.578535 2.078319 2.828427 2.828427 2.078319 3.578535 1.060812 4 0 4-1.060812 4-2.078319 3.578535-2.828427 2.828427-3.578535 2.078319-4 1.060812-4 0-4-1.060812-3.578535-2.078319-2.828427-2.828427-2.078319-3.578535-1.060812-4 0-4Z"/>
<path transform="matrix(1,0,0,-1,171.55564,339.02876)" stroke-width="1" stroke-linecap="butt" stroke-linejoin="round" fill="none" stroke="#000000" d="M0-4C1.060812-4 2.078319-3.578535 2.828427-2.828427 3.578535-2.078319 4-1.060812 4 0 4 1.060812 3.578535 2.078319 2.828427 2.828427 2.078319 3.578535 1.060812 4 0 4-1.060812 4-2.078319 3.578535-2.828427 2.828427-3.578535 2.078319-4 1.060812-4 0-4-1.060812-3.578535-2.078319-2.828427-2.828427-2.078319-3.578535-1.060812-4 0-4Z"/>
</g>
<g clip-path="url(#clip_18)">
<path transform="matrix(1,0,0,-1,188.1805,310.29899)" d="M0-4C1.060812-4 2.078319-3.578535 2.828427-2.828427 3.578535-2.078319 4-1.060812 4 0 4 1.060812 3.578535 2.078319 2.828427 2.828427 2.078319 3.578535 1.060812 4 0 4-1.060812 4-2.078319 3.578535-2.828427 2.828427-3.578535 2.078319-4 1.060812-4 0-4-1.060812-3.578535-2.078319-2.828427-2.828427-2.078319-3.578535-1.060812-4 0-4Z"/>
<path transform="matrix(1,0,0,-1,188.1805,310.29899)" stroke-width="1" stroke-linecap="butt" stroke-linejoin="round" fill="none" stroke="#000000" d="M0-4C1.060812-4 2.078319-3.578535 2.828427-2.828427 3.578535-2.078319 4-1.060812 4 0 4 1.060812 3.578535 2.078319 2.828427 2.828427 2.078319 3.578535 1.060812 4 0 4-1.060812 4-2.078319 3.578535-2.828427 2.828427-3.578535 2.078319-4 1.060812-4 0-4-1.060812-3.578535-2.078319-2.828427-2.828427-2.078319-3.578535-1.060812-4 0-4Z"/>
</g>
<g clip-path="url(#clip_19)">
<path transform="matrix(1,0,0,-1,204.80536,291.1458)" d="M0-4C1.060812-4 2.078319-3.578535 2.828427-2.828427 3.578535-2.078319 4-1.060812 4 0 4 1.060812 3.578535 2.078319 2.828427 2.828427 2.078319 3.578535 1.060812 4 0 4-1.060812 4-2.078319 3.578535-2.828427 2.828427-3.578535 2.078319-4 1.060812-4 0-4-1.060812-3.578535-2.078319-2.828427-2.828427-2.078319-3.578535-1.060812-4 0-4Z"/>
<path transform="matrix(1,0,0,-1,204.80536,291.1458)" stroke-width="1" stroke-linecap="butt" stroke-linejoin="round" fill="none" stroke="#000000" d="M0-4C1.060812-4 2.078319-3.578535 2.828427-2.828427 3.578535-2.078319 4-1.060812 4 0 4 1.060812 3.578535 2.078319 2.828427 2.828427 2.078319 3.578535 1.060812 4 0 4-1.060812 4-2.078319 3.578535-2.828427 2.828427-3.578535 2.078319-4 1.060812-4 0-4-1.060812-3.578535-2.078319-2.828427-2.828427-2.078319-3.578535-1.060812-4 0-4Z"/>
</g>
<g clip-path="url(#clip_20)">
<path transform="matrix(1,0,0,-1,221.43022,271.99266)" d="M0-4C1.060812-4 2.078319-3.578535 2.828427-2.828427 3.578535-2.078319 4-1.060812 4 0 4 1.060812 3.578535 2.078319 2.828427 2.828427 2.078319 3.578535 1.060812 4 0 4-1.060812 4-2.078319 3.578535-2.828427 2.828427-3.578535 2.078319-4 1.060812-4 0-4-1.060812-3.578535-2.078319-2.828427-2.828427-2.078319-3.578535-1.060812-4 0-4Z"/>
<path transform="matrix(1,0,0,-1,221.43022,271.99266)" stroke-width="1" stroke-linecap="butt" stroke-linejoin="round" fill="none" stroke="#000000" d="M0-4C1.060812-4 2.078319-3.578535 2.828427-2.828427 3.578535-2.078319 4-1.060812 4 0 4 1.060812 3.578535 2.078319 2.828427 2.828427 2.078319 3.578535 1.060812 4 0 4-1.060812 4-2.078319 3.578535-2.828427 2.828427-3.578535 2.078319-4 1.060812-4 0-4-1.060812-3.578535-2.078319-2.828427-2.828427-2.078319-3.578535-1.060812-4 0-4Z"/>
</g>
<g clip-path="url(#clip_21)">
<path transform="matrix(1,0,0,-1,238.05509,243.26288)" d="M0-4C1.060812-4 2.078319-3.578535 2.828427-2.828427 3.578535-2.078319 4-1.060812 4 0 4 1.060812 3.578535 2.078319 2.828427 2.828427 2.078319 3.578535 1.060812 4 0 4-1.060812 4-2.078319 3.578535-2.828427 2.828427-3.578535 2.078319-4 1.060812-4 0-4-1.060812-3.578535-2.078319-2.828427-2.828427-2.078319-3.578535-1.060812-4 0-4Z"/>
<path transform="matrix(1,0,0,-1,238.05509,243.26288)" stroke-width="1" stroke-linecap="butt" stroke-linejoin="round" fill="none" stroke="#000000" d="M0-4C1.060812-4 2.078319-3.578535 2.828427-2.828427 3.578535-2.078319 4-1.060812 4 0 4 1.060812 3.578535 2.078319 2.828427 2.828427 2.078319 3.578535 1.060812 4 0 4-1.060812 4-2.078319 3.578535-2.828427 2.828427-3.578535 2.078319-4 1.060812-4 0-4-1.060812-3.578535-2.078319-2.828427-2.828427-2.078319-3.578535-1.060812-4 0-4Z"/>
</g>
<g clip-path="url(#clip_22)">
<path transform="matrix(1,0,0,-1,254.67995,224.10971)" d="M0-4C1.060812-4 2.078319-3.578535 2.828427-2.828427 3.578535-2.078319 4-1.060812 4 0 4 1.060812 3.578535 2.078319 2.828427 2.828427 2.078319 3.578535 1.060812 4 0 4-1.060812 4-2.078319 3.578535-2.828427 2.828427-3.578535 2.078319-4 1.060812-4 0-4-1.060812-3.578535-2.078319-2.828427-2.828427-2.078319-3.578535-1.060812-4 0-4Z"/>
<path transform="matrix(1,0,0,-1,254.67995,224.10971)" stroke-width="1" stroke-linecap="butt" stroke-linejoin="round" fill="none" stroke="#000000" d="M0-4C1.060812-4 2.078319-3.578535 2.828427-2.828427 3.578535-2.078319 4-1.060812 4 0 4 1.060812 3.578535 2.078319 2.828427 2.828427 2.078319 3.578535 1.060812 4 0 4-1.060812 4-2.078319 3.578535-2.828427 2.828427-3.578535 2.078319-4 1.060812-4 0-4-1.060812-3.578535-2.078319-2.828427-2.828427-2.078319-3.578535-1.060812-4 0-4Z"/>
</g>
<g clip-path="url(#clip_23)">
<path transform="matrix(1,0,0,-1,271.3048,214.53313)" d="M0-4C1.060812-4 2.078319-3.578535 2.828427-2.828427 3.578535-2.078319 4-1.060812 4 0 4 1.060812 3.578535 2.078319 2.828427 2.828427 2.078319 3.578535 1.060812 4 0 4-1.060812 4-2.078319 3.578535-2.828427 2.828427-3.578535 2.078319-4 1.060812-4 0-4-1.060812-3.578535-2.078319-2.828427-2.828427-2.078319-3.578535-1.060812-4 0-4Z"/>
<path transform="matrix(1,0,0,-1,271.3048,214.53313)" stroke-width="1" stroke-linecap="butt" stroke-linejoin="round" fill="none" stroke="#000000" d="M0-4C1.060812-4 2.078319-3.578535 2.828427-2.828427 3.578535-2.078319 4-1.060812 4 0 4 1.060812 3.578535 2.078319 2.828427 2.828427 2.078319 3.578535 1.060812 4 0 4-1.060812 4-2.078319 3.578535-2.828427 2.828427-3.578535 2.078319-4 1.060812-4 0-4-1.060812-3.578535-2.078319-2.828427-2.828427-2.078319-3.578535-1.060812-4 0-4Z"/>
</g>
<g clip-path="url(#clip_24)">
<path transform="matrix(1,0,0,-1,287.92967,204.95655)" d="M0-4C1.060812-4 2.078319-3.578535 2.828427-2.828427 3.578535-2.078319 4-1.060812 4 0 4 1.060812 3.578535 2.078319 2.828427 2.828427 2.078319 3.578535 1.060812 4 0 4-1.060812 4-2.078319 3.578535-2.828427 2.828427-3.578535 2.078319-4 1.060812-4 0-4-1.060812-3.578535-2.078319-2.828427-2.828427-2.078319-3.578535-1.060812-4 0-4Z"/>
<path transform="matrix(1,0,0,-1,287.92967,204.95655)" stroke-width="1" stroke-linecap="butt" stroke-linejoin="round" fill="none" stroke="#000000" d="M0-4C1.060812-4 2.078319-3.578535 2.828427-2.828427 3.578535-2.078319 4-1.060812 4 0 4 1.060812 3.578535 2.078319 2.828427 2.828427 2.078319 3.578535 1.060812 4 0 4-1.060812 4-2.078319 3.578535-2.828427 2.828427-3.578535 2.078319-4 1.060812-4 0-4-1.060812-3.578535-2.078319-2.828427-2.828427-2.078319-3.578535-1.060812-4 0-4Z"/>
</g>
<g clip-path="url(#clip_25)">
<path transform="matrix(1,0,0,-1,304.5545,185.80338)" d="M0-4C1.060812-4 2.078319-3.578535 2.828427-2.828427 3.578535-2.078319 4-1.060812 4 0 4 1.060812 3.578535 2.078319 2.828427 2.828427 2.078319 3.578535 1.060812 4 0 4-1.060812 4-2.078319 3.578535-2.828427 2.828427-3.578535 2.078319-4 1.060812-4 0-4-1.060812-3.578535-2.078319-2.828427-2.828427-2.078319-3.578535-1.060812-4 0-4Z"/>
<path transform="matrix(1,0,0,-1,304.5545,185.80338)" stroke-width="1" stroke-linecap="butt" stroke-linejoin="round" fill="none" stroke="#000000" d="M0-4C1.060812-4 2.078319-3.578535 2.828427-2.828427 3.578535-2.078319 4-1.060812 4 0 4 1.060812 3.578535 2.078319 2.828427 2.828427 2.078319 3.578535 1.060812 4 0 4-1.060812 4-2.078319 3.578535-2.828427 2.828427-3.578535 2.078319-4 1.060812-4 0-4-1.060812-3.578535-2.078319-2.828427-2.828427-2.078319-3.578535-1.060812-4 0-4Z"/>
</g>
<g clip-path="url(#clip_26)">
<path transform="matrix(1,0,0,-1,321.17936,185.80338)" d="M0-4C1.060812-4 2.078319-3.578535 2.828427-2.828427 3.578535-2.078319 4-1.060812 4 0 4 1.060812 3.578535 2.078319 2.828427 2.828427 2.078319 3.578535 1.060812 4 0 4-1.060812 4-2.078319 3.578535-2.828427 2.828427-3.578535 2.078319-4 1.060812-4 0-4-1.060812-3.578535-2.078319-2.828427-2.828427-2.078319-3.578535-1.060812-4 0-4Z"/>
<path transform="matrix(1,0,0,-1,321.17936,185.80338)" stroke-width="1" stroke-linecap="butt" stroke-linejoin="round" fill="none" stroke="#000000" d="M0-4C1.060812-4 2.078319-3.578535 2.828427-2.828427 3.578535-2.078319 4-1.060812 4 0 4 1.060812 3.578535 2.078319 2.828427 2.828427 2.078319 3.578535 1.060812 4 0 4-1.060812 4-2.078319 3.578535-2.828427 2.828427-3.578535 2.078319-4 1.060812-4 0-4-1.060812-3.578535-2.078319-2.828427-2.828427-2.078319-3.578535-1.060812-4 0-4Z"/>
</g>
<g clip-path="url(#clip_27)">
<path transform="matrix(1,0,0,-1,337.8042,185.80338)" d="M0-4C1.060812-4 2.078319-3.578535 2.828427-2.828427 3.578535-2.078319 4-1.060812 4 0 4 1.060812 3.578535 2.078319 2.828427 2.828427 2.078319 3.578535 1.060812 4 0 4-1.060812 4-2.078319 3.578535-2.828427 2.828427-3.578535 2.078319-4 1.060812-4 0-4-1.060812-3.578535-2.078319-2.828427-2.828427-2.078319-3.578535-1.060812-4 0-4Z"/>
<path transform="matrix(1,0,0,-1,337.8042,185.80338)" stroke-width="1" stroke-linecap="butt" stroke-linejoin="round" fill="none" stroke="#000000" d="M0-4C1.060812-4 2.078319-3.578535 2.828427-2.828427 3.578535-2.078319 4-1.060812 4 0 4 1.060812 3.578535 2.078319 2.828427 2.828427 2.078319 3.578535 1.060812 4 0 4-1.060812 4-2.078319 3.578535-2.828427 2.828427-3.578535 2.078319-4 1.060812-4 0-4-1.060812-3.578535-2.078319-2.828427-2.828427-2.078319-3.578535-1.060812-4 0-4Z"/>
</g>
<g clip-path="url(#clip_28)">
<path transform="matrix(1,0,0,-1,354.42906,176.22679)" d="M0-4C1.060812-4 2.078319-3.578535 2.828427-2.828427 3.578535-2.078319 4-1.060812 4 0 4 1.060812 3.578535 2.078319 2.828427 2.828427 2.078319 3.578535 1.060812 4 0 4-1.060812 4-2.078319 3.578535-2.828427 2.828427-3.578535 2.078319-4 1.060812-4 0-4-1.060812-3.578535-2.078319-2.828427-2.828427-2.078319-3.578535-1.060812-4 0-4Z"/>
<path transform="matrix(1,0,0,-1,354.42906,176.22679)" stroke-width="1" stroke-linecap="butt" stroke-linejoin="round" fill="none" stroke="#000000" d="M0-4C1.060812-4 2.078319-3.578535 2.828427-2.828427 3.578535-2.078319 4-1.060812 4 0 4 1.060812 3.578535 2.078319 2.828427 2.828427 2.078319 3.578535 1.060812 4 0 4-1.060812 4-2.078319 3.578535-2.828427 2.828427-3.578535 2.078319-4 1.060812-4 0-4-1.060812-3.578535-2.078319-2.828427-2.828427-2.078319-3.578535-1.060812-4 0-4Z"/>
</g>
<g clip-path="url(#clip_29)">
<path transform="matrix(1,0,0,-1,371.0539,166.6502)" d="M0-4C1.060812-4 2.078319-3.578535 2.828427-2.828427 3.578535-2.078319 4-1.060812 4 0 4 1.060812 3.578535 2.078319 2.828427 2.828427 2.078319 3.578535 1.060812 4 0 4-1.060812 4-2.078319 3.578535-2.828427 2.828427-3.578535 2.078319-4 1.060812-4 0-4-1.060812-3.578535-2.078319-2.828427-2.828427-2.078319-3.578535-1.060812-4 0-4Z"/>
<path transform="matrix(1,0,0,-1,371.0539,166.6502)" stroke-width="1" stroke-linecap="butt" stroke-linejoin="round" fill="none" stroke="#000000" d="M0-4C1.060812-4 2.078319-3.578535 2.828427-2.828427 3.578535-2.078319 4-1.060812 4 0 4 1.060812 3.578535 2.078319 2.828427 2.828427 2.078319 3.578535 1.060812 4 0 4-1.060812 4-2.078319 3.578535-2.828427 2.828427-3.578535 2.078319-4 1.060812-4 0-4-1.060812-3.578535-2.078319-2.828427-2.828427-2.078319-3.578535-1.060812-4 0-4Z"/>
</g>
<g clip-path="url(#clip_30)">
<path transform="matrix(1,0,0,-1,387.67875,157.07363)" d="M0-4C1.060812-4 2.078319-3.578535 2.828427-2.828427 3.578535-2.078319 4-1.060812 4 0 4 1.060812 3.578535 2.078319 2.828427 2.828427 2.078319 3.578535 1.060812 4 0 4-1.060812 4-2.078319 3.578535-2.828427 2.828427-3.578535 2.078319-4 1.060812-4 0-4-1.060812-3.578535-2.078319-2.828427-2.828427-2.078319-3.578535-1.060812-4 0-4Z"/>
<path transform="matrix(1,0,0,-1,387.67875,157.07363)" stroke-width="1" stroke-linecap="butt" stroke-linejoin="round" fill="none" stroke="#000000" d="M0-4C1.060812-4 2.078319-3.578535 2.828427-2.828427 3.578535-2.078319 4-1.060812 4 0 4 1.060812 3.578535 2.078319 2.828427 2.828427 2.078319 3.578535 1.060812 4 0 4-1.060812 4-2.078319 3.578535-2.828427 2.828427-3.578535 2.078319-4 1.060812-4 0-4-1.060812-3.578535-2.078319-2.828427-2.828427-2.078319-3.578535-1.060812-4 0-4Z"/>
</g>
<g clip-path="url(#clip_31)">
<path transform="matrix(1,0,0,-1,404.3036,157.07363)" d="M0-4C1.060812-4 2.078319-3.578535 2.828427-2.828427 3.578535-2.078319 4-1.060812 4 0 4 1.060812 3.578535 2.078319 2.828427 2.828427 2.078319 3.578535 1.060812 4 0 4-1.060812 4-2.078319 3.578535-2.828427 2.828427-3.578535 2.078319-4 1.060812-4 0-4-1.060812-3.578535-2.078319-2.828427-2.828427-2.078319-3.578535-1.060812-4 0-4Z"/>
<path transform="matrix(1,0,0,-1,404.3036,157.07363)" stroke-width="1" stroke-linecap="butt" stroke-linejoin="round" fill="none" stroke="#000000" d="M0-4C1.060812-4 2.078319-3.578535 2.828427-2.828427 3.578535-2.078319 4-1.060812 4 0 4 1.060812 3.578535 2.078319 2.828427 2.828427 2.078319 3.578535 1.060812 4 0 4-1.060812 4-2.078319 3.578535-2.828427 2.828427-3.578535 2.078319-4 1.060812-4 0-4-1.060812-3.578535-2.078319-2.828427-2.828427-2.078319-3.578535-1.060812-4 0-4Z"/>
</g>
<g clip-path="url(#clip_32)">
<path transform="matrix(1,0,0,-1,420.92845,147.49704)" d="M0-4C1.060812-4 2.078319-3.578535 2.828427-2.828427 3.578535-2.078319 4-1.060812 4 0 4 1.060812 3.578535 2.078319 2.828427 2.828427 2.078319 3.578535 1.060812 4 0 4-1.060812 4-2.078319 3.578535-2.828427 2.828427-3.578535 2.078319-4 1.060812-4 0-4-1.060812-3.578535-2.078319-2.828427-2.828427-2.078319-3.578535-1.060812-4 0-4Z"/>
<path transform="matrix(1,0,0,-1,420.92845,147.49704)" stroke-width="1" stroke-linecap="butt" stroke-linejoin="round" fill="none" stroke="#000000" d="M0-4C1.060812-4 2.078319-3.578535 2.828427-2.828427 3.578535-2.078319 4-1.060812 4 0 4 1.060812 3.578535 2.078319 2.828427 2.828427 2.078319 3.578535 1.060812 4 0 4-1.060812 4-2.078319 3.578535-2.828427 2.828427-3.578535 2.078319-4 1.060812-4 0-4-1.060812-3.578535-2.078319-2.828427-2.828427-2.078319-3.578535-1.060812-4 0-4Z"/>
</g>
<g clip-path="url(#clip_33)">
<path transform="matrix(1,0,0,-1,437.55329,147.49704)" d="M0-4C1.060812-4 2.078319-3.578535 2.828427-2.828427 3.578535-2.078319 4-1.060812 4 0 4 1.060812 3.578535 2.078319 2.828427 2.828427 2.078319 3.578535 1.060812 4 0 4-1.060812 4-2.078319 3.578535-2.828427 2.828427-3.578535 2.078319-4 1.060812-4 0-4-1.060812-3.578535-2.078319-2.828427-2.828427-2.078319-3.578535-1.060812-4 0-4Z"/>
<path transform="matrix(1,0,0,-1,437.55329,147.49704)" stroke-width="1" stroke-linecap="butt" stroke-linejoin="round" fill="none" stroke="#000000" d="M0-4C1.060812-4 2.078319-3.578535 2.828427-2.828427 3.578535-2.078319 4-1.060812 4 0 4 1.060812 3.578535 2.078319 2.828427 2.828427 2.078319 3.578535 1.060812 4 0 4-1.060812 4-2.078319 3.578535-2.828427 2.828427-3.578535 2.078319-4 1.060812-4 0-4-1.060812-3.578535-2.078319-2.828427-2.828427-2.078319-3.578535-1.060812-4 0-4Z"/>
</g>
<g clip-path="url(#clip_34)">
<path transform="matrix(1,0,0,-1,454.17814,147.49704)" d="M0-4C1.060812-4 2.078319-3.578535 2.828427-2.828427 3.578535-2.078319 4-1.060812 4 0 4 1.060812 3.578535 2.078319 2.828427 2.828427 2.078319 3.578535 1.060812 4 0 4-1.060812 4-2.078319 3.578535-2.828427 2.828427-3.578535 2.078319-4 1.060812-4 0-4-1.060812-3.578535-2.078319-2.828427-2.828427-2.078319-3.578535-1.060812-4 0-4Z"/>
<path transform="matrix(1,0,0,-1,454.17814,147.49704)" stroke-width="1" stroke-linecap="butt" stroke-linejoin="round" fill="none" stroke="#000000" d="M0-4C1.060812-4 2.078319-3.578535 2.828427-2.828427 3.578535-2.078319 4-1.060812 4 0 4 1.060812 3.578535 2.078319 2.828427 2.828427 2.078319 3.578535 1.060812 4 0 4-1.060812 4-2.078319 3.578535-2.828427 2.828427-3.578535 2.078319-4 1.060812-4 0-4-1.060812-3.578535-2.078319-2.828427-2.828427-2.078319-3.578535-1.060812-4 0-4Z"/>
</g>
<g clip-path="url(#clip_35)">
<path transform="matrix(1,0,0,-1,470.80299,137.92046)" d="M0-4C1.060812-4 2.078319-3.578535 2.828427-2.828427 3.578535-2.078319 4-1.060812 4 0 4 1.060812 3.578535 2.078319 2.828427 2.828427 2.078319 3.578535 1.060812 4 0 4-1.060812 4-2.078319 3.578535-2.828427 2.828427-3.578535 2.078319-4 1.060812-4 0-4-1.060812-3.578535-2.078319-2.828427-2.828427-2.078319-3.578535-1.060812-4 0-4Z"/>
<path transform="matrix(1,0,0,-1,470.80299,137.92046)" stroke-width="1" stroke-linecap="butt" stroke-linejoin="round" fill="none" stroke="#000000" d="M0-4C1.060812-4 2.078319-3.578535 2.828427-2.828427 3.578535-2.078319 4-1.060812 4 0 4 1.060812 3.578535 2.078319 2.828427 2.828427 2.078319 3.578535 1.060812 4 0 4-1.060812 4-2.078319 3.578535-2.828427 2.828427-3.578535 2.078319-4 1.060812-4 0-4-1.060812-3.578535-2.078319-2.828427-2.828427-2.078319-3.578535-1.060812-4 0-4Z"/>
</g>
<g clip-path="url(#clip_36)">
<path transform="matrix(1,0,0,-1,487.42784,118.76728)" d="M0-4C1.060812-4 2.078319-3.578535 2.828427-2.828427 3.578535-2.078319 4-1.060812 4 0 4 1.060812 3.578535 2.078319 2.828427 2.828427 2.078319 3.578535 1.060812 4 0 4-1.060812 4-2.078319 3.578535-2.828427 2.828427-3.578535 2.078319-4 1.060812-4 0-4-1.060812-3.578535-2.078319-2.828427-2.828427-2.078319-3.578535-1.060812-4 0-4Z"/>
<path transform="matrix(1,0,0,-1,487.42784,118.76728)" stroke-width="1" stroke-linecap="butt" stroke-linejoin="round" fill="none" stroke="#000000" d="M0-4C1.060812-4 2.078319-3.578535 2.828427-2.828427 3.578535-2.078319 4-1.060812 4 0 4 1.060812 3.578535 2.078319 2.828427 2.828427 2.078319 3.578535 1.060812 4 0 4-1.060812 4-2.078319 3.578535-2.828427 2.828427-3.578535 2.078319-4 1.060812-4 0-4-1.060812-3.578535-2.078319-2.828427-2.828427-2.078319-3.578535-1.060812-4 0-4Z"/>
</g>
<g clip-path="url(#clip_37)">
<path transform="matrix(1,0,0,-1,504.05268,118.76728)" d="M0-4C1.060812-4 2.078319-3.578535 2.828427-2.828427 3.578535-2.078319 4-1.060812 4 0 4 1.060812 3.578535 2.078319 2.828427 2.828427 2.078319 3.578535 1.060812 4 0 4-1.060812 4-2.078319 3.578535-2.828427 2.828427-3.578535 2.078319-4 1.060812-4 0-4-1.060812-3.578535-2.078319-2.828427-2.828427-2.078319-3.578535-1.060812-4 0-4Z"/>
<path transform="matrix(1,0,0,-1,504.05268,118.76728)" stroke-width="1" stroke-linecap="butt" stroke-linejoin="round" fill="none" stroke="#000000" d="M0-4C1.060812-4 2.078319-3.578535 2.828427-2.828427 3.578535-2.078319 4-1.060812 4 0 4 1.060812 3.578535 2.078319 2.828427 2.828427 2.078319 3.578535 1.060812 4 0 4-1.060812 4-2.078319 3.578535-2.828427 2.828427-3.578535 2.078319-4 1.060812-4 0-4-1.060812-3.578535-2.078319-2.828427-2.828427-2.078319-3.578535-1.060812-4 0-4Z"/>
</g>
<g clip-path="url(#clip_38)">
<path transform="matrix(1,0,0,-1,520.67758,109.19069)" d="M0-4C1.060812-4 2.078319-3.578535 2.828427-2.828427 3.578535-2.078319 4-1.060812 4 0 4 1.060812 3.578535 2.078319 2.828427 2.828427 2.078319 3.578535 1.060812 4 0 4-1.060812 4-2.078319 3.578535-2.828427 2.828427-3.578535 2.078319-4 1.060812-4 0-4-1.060812-3.578535-2.078319-2.828427-2.828427-2.078319-3.578535-1.060812-4 0-4Z"/>
<path transform="matrix(1,0,0,-1,520.67758,109.19069)" stroke-width="1" stroke-linecap="butt" stroke-linejoin="round" fill="none" stroke="#000000" d="M0-4C1.060812-4 2.078319-3.578535 2.828427-2.828427 3.578535-2.078319 4-1.060812 4 0 4 1.060812 3.578535 2.078319 2.828427 2.828427 2.078319 3.578535 1.060812 4 0 4-1.060812 4-2.078319 3.578535-2.828427 2.828427-3.578535 2.078319-4 1.060812-4 0-4-1.060812-3.578535-2.078319-2.828427-2.828427-2.078319-3.578535-1.060812-4 0-4Z"/>
</g>
<g clip-path="url(#clip_39)">
<path transform="matrix(1,0,0,-1,537.3024,109.19069)" d="M0-4C1.060812-4 2.078319-3.578535 2.828427-2.828427 3.578535-2.078319 4-1.060812 4 0 4 1.060812 3.578535 2.078319 2.828427 2.828427 2.078319 3.578535 1.060812 4 0 4-1.060812 4-2.078319 3.578535-2.828427 2.828427-3.578535 2.078319-4 1.060812-4 0-4-1.060812-3.578535-2.078319-2.828427-2.828427-2.078319-3.578535-1.060812-4 0-4Z"/>
<path transform="matrix(1,0,0,-1,537.3024,109.19069)" stroke-width="1" stroke-linecap="butt" stroke-linejoin="round" fill="none" stroke="#000000" d="M0-4C1.060812-4 2.078319-3.578535 2.828427-2.828427 3.578535-2.078319 4-1.060812 4 0 4 1.060812 3.578535 2.078319 2.828427 2.828427 2.078319 3.578535 1.060812 4 0 4-1.060812 4-2.078319 3.578535-2.828427 2.828427-3.578535 2.078319-4 1.060812-4 0-4-1.060812-3.578535-2.078319-2.828427-2.828427-2.078319-3.578535-1.060812-4 0-4Z"/>
</g>
<g clip-path="url(#clip_40)">
<path transform="matrix(1,0,0,-1,553.9273,109.19069)" d="M0-4C1.060812-4 2.078319-3.578535 2.828427-2.828427 3.578535-2.078319 4-1.060812 4 0 4 1.060812 3.578535 2.078319 2.828427 2.828427 2.078319 3.578535 1.060812 4 0 4-1.060812 4-2.078319 3.578535-2.828427 2.828427-3.578535 2.078319-4 1.060812-4 0-4-1.060812-3.578535-2.078319-2.828427-2.828427-2.078319-3.578535-1.060812-4 0-4Z"/>
<path transform="matrix(1,0,0,-1,553.9273,109.19069)" stroke-width="1" stroke-linecap="butt" stroke-linejoin="round" fill="none" stroke="#000000" d="M0-4C1.060812-4 2.078319-3.578535 2.828427-2.828427 3.578535-2.078319 4-1.060812 4 0 4 1.060812 3.578535 2.078319 2.828427 2.828427 2.078319 3.578535 1.060812 4 0 4-1.060812 4-2.078319 3.578535-2.828427 2.828427-3.578535 2.078319-4 1.060812-4 0-4-1.060812-3.578535-2.078319-2.828427-2.828427-2.078319-3.578535-1.060812-4 0-4Z"/>
</g>
<g clip-path="url(#clip_41)">
<path transform="matrix(1,0,0,-1,570.5522,109.19069)" d="M0-4C1.060812-4 2.078319-3.578535 2.828427-2.828427 3.578535-2.078319 4-1.060812 4 0 4 1.060812 3.578535 2.078319 2.828427 2.828427 2.078319 3.578535 1.060812 4 0 4-1.060812 4-2.078319 3.578535-2.828427 2.828427-3.578535 2.078319-4 1.060812-4 0-4-1.060812-3.578535-2.078319-2.828427-2.828427-2.078319-3.578535-1.060812-4 0-4Z"/>
<path transform="matrix(1,0,0,-1,570.5522,109.19069)" stroke-width="1" stroke-linecap="butt" stroke-linejoin="round" fill="none" stroke="#000000" d="M0-4C1.060812-4 2.078319-3.578535 2.828427-2.828427 3.578535-2.078319 4-1.060812 4 0 4 1.060812 3.578535 2.078319 2.828427 2.828427 2.078319 3.578535 1.060812 4 0 4-1.060812 4-2.078319 3.578535-2.828427 2.828427-3.578535 2.078319-4 1.060812-4 0-4-1.060812-3.578535-2.078319-2.828427-2.828427-2.078319-3.578535-1.060812-4 0-4Z"/>
</g>
<g clip-path="url(#clip_42)">
<path transform="matrix(1,0,0,-1,587.17709,109.19069)" d="M0-4C1.060812-4 2.078319-3.578535 2.828427-2.828427 3.578535-2.078319 4-1.060812 4 0 4 1.060812 3.578535 2.078319 2.828427 2.828427 2.078319 3.578535 1.060812 4 0 4-1.060812 4-2.078319 3.578535-2.828427 2.828427-3.578535 2.078319-4 1.060812-4 0-4-1.060812-3.578535-2.078319-2.828427-2.828427-2.078319-3.578535-1.060812-4 0-4Z"/>
<path transform="matrix(1,0,0,-1,587.17709,109.19069)" stroke-width="1" stroke-linecap="butt" stroke-linejoin="round" fill="none" stroke="#000000" d="M0-4C1.060812-4 2.078319-3.578535 2.828427-2.828427 3.578535-2.078319 4-1.060812 4 0 4 1.060812 3.578535 2.078319 2.828427 2.828427 2.078319 3.578535 1.060812 4 0 4-1.060812 4-2.078319 3.578535-2.828427 2.828427-3.578535 2.078319-4 1.060812-4 0-4-1.060812-3.578535-2.078319-2.828427-2.828427-2.078319-3.578535-1.060812-4 0-4Z"/>
</g>
<g clip-path="url(#clip_43)">
<path transform="matrix(1,0,0,-1,603.80197,99.614109)" d="M0-4C1.060812-4 2.078319-3.578535 2.828427-2.828427 3.578535-2.078319 4-1.060812 4 0 4 1.060812 3.578535 2.078319 2.828427 2.828427 2.078319 3.578535 1.060812 4 0 4-1.060812 4-2.078319 3.578535-2.828427 2.828427-3.578535 2.078319-4 1.060812-4 0-4-1.060812-3.578535-2.078319-2.828427-2.828427-2.078319-3.578535-1.060812-4 0-4Z"/>
<path transform="matrix(1,0,0,-1,603.80197,99.614109)" stroke-width="1" stroke-linecap="butt" stroke-linejoin="round" fill="none" stroke="#000000" d="M0-4C1.060812-4 2.078319-3.578535 2.828427-2.828427 3.578535-2.078319 4-1.060812 4 0 4 1.060812 3.578535 2.078319 2.828427 2.828427 2.078319 3.578535 1.060812 4 0 4-1.060812 4-2.078319 3.578535-2.828427 2.828427-3.578535 2.078319-4 1.060812-4 0-4-1.060812-3.578535-2.078319-2.828427-2.828427-2.078319-3.578535-1.060812-4 0-4Z"/>
</g>
<g clip-path="url(#clip_44)">
<path transform="matrix(1,0,0,-1,620.4268,90.03752)" d="M0-4C1.060812-4 2.078319-3.578535 2.828427-2.828427 3.578535-2.078319 4-1.060812 4 0 4 1.060812 3.578535 2.078319 2.828427 2.828427 2.078319 3.578535 1.060812 4 0 4-1.060812 4-2.078319 3.578535-2.828427 2.828427-3.578535 2.078319-4 1.060812-4 0-4-1.060812-3.578535-2.078319-2.828427-2.828427-2.078319-3.578535-1.060812-4 0-4Z"/>
<path transform="matrix(1,0,0,-1,620.4268,90.03752)" stroke-width="1" stroke-linecap="butt" stroke-linejoin="round" fill="none" stroke="#000000" d="M0-4C1.060812-4 2.078319-3.578535 2.828427-2.828427 3.578535-2.078319 4-1.060812 4 0 4 1.060812 3.578535 2.078319 2.828427 2.828427 2.078319 3.578535 1.060812 4 0 4-1.060812 4-2.078319 3.578535-2.828427 2.828427-3.578535 2.078319-4 1.060812-4 0-4-1.060812-3.578535-2.078319-2.828427-2.828427-2.078319-3.578535-1.060812-4 0-4Z"/>
</g>
<g clip-path="url(#clip_45)">
<path transform="matrix(1,0,0,-1,637.0517,90.03752)" d="M0-4C1.060812-4 2.078319-3.578535 2.828427-2.828427 3.578535-2.078319 4-1.060812 4 0 4 1.060812 3.578535 2.078319 2.828427 2.828427 2.078319 3.578535 1.060812 4 0 4-1.060812 4-2.078319 3.578535-2.828427 2.828427-3.578535 2.078319-4 1.060812-4 0-4-1.060812-3.578535-2.078319-2.828427-2.828427-2.078319-3.578535-1.060812-4 0-4Z"/>
<path transform="matrix(1,0,0,-1,637.0517,90.03752)" stroke-width="1" stroke-linecap="butt" stroke-linejoin="round" fill="none" stroke="#000000" d="M0-4C1.060812-4 2.078319-3.578535 2.828427-2.828427 3.578535-2.078319 4-1.060812 4 0 4 1.060812 3.578535 2.078319 2.828427 2.828427 2.078319 3.578535 1.060812 4 0 4-1.060812 4-2.078319 3.578535-2.828427 2.828427-3.578535 2.078319-4 1.060812-4 0-4-1.060812-3.578535-2.078319-2.828427-2.828427-2.078319-3.578535-1.060812-4 0-4Z"/>
</g>
<g clip-path="url(#clip_46)">
<path transform="matrix(1,0,0,-1,653.6766,90.03752)" d="M0-4C1.060812-4 2.078319-3.578535 2.828427-2.828427 3.578535-2.078319 4-1.060812 4 0 4 1.060812 3.578535 2.078319 2.828427 2.828427 2.078319 3.578535 1.060812 4 0 4-1.060812 4-2.078319 3.578535-2.828427 2.828427-3.578535 2.078319-4 1.060812-4 0-4-1.060812-3.578535-2.078319-2.828427-2.828427-2.078319-3.578535-1.060812-4 0-4Z"/>
<path transform="matrix(1,0,0,-1,653.6766,90.03752)" stroke-width="1" stroke-linecap="butt" stroke-linejoin="round" fill="none" stroke="#000000" d="M0-4C1.060812-4 2.078319-3.578535 2.828427-2.828427 3.578535-2.078319 4-1.060812 4 0 4 1.060812 3.578535 2.078319 2.828427 2.828427 2.078319 3.578535 1.060812 4 0 4-1.060812 4-2.078319 3.578535-2.828427 2.828427-3.578535 2.078319-4 1.060812-4 0-4-1.060812-3.578535-2.078319-2.828427-2.828427-2.078319-3.578535-1.060812-4 0-4Z"/>
</g>
<g clip-path="url(#clip_47)">
<path transform="matrix(1,0,0,-1,670.30148,90.03752)" d="M0-4C1.060812-4 2.078319-3.578535 2.828427-2.828427 3.578535-2.078319 4-1.060812 4 0 4 1.060812 3.578535 2.078319 2.828427 2.828427 2.078319 3.578535 1.060812 4 0 4-1.060812 4-2.078319 3.578535-2.828427 2.828427-3.578535 2.078319-4 1.060812-4 0-4-1.060812-3.578535-2.078319-2.828427-2.828427-2.078319-3.578535-1.060812-4 0-4Z"/>
<path transform="matrix(1,0,0,-1,670.30148,90.03752)" stroke-width="1" stroke-linecap="butt" stroke-linejoin="round" fill="none" stroke="#000000" d="M0-4C1.060812-4 2.078319-3.578535 2.828427-2.828427 3.578535-2.078319 4-1.060812 4 0 4 1.060812 3.578535 2.078319 2.828427 2.828427 2.078319 3.578535 1.060812 4 0 4-1.060812 4-2.078319 3.578535-2.828427 2.828427-3.578535 2.078319-4 1.060812-4 0-4-1.060812-3.578535-2.078319-2.828427-2.828427-2.078319-3.578535-1.060812-4 0-4Z"/>
</g>
<g clip-path="url(#clip_48)">
<path transform="matrix(1,0,0,-1,686.92636,90.03752)" d="M0-4C1.060812-4 2.078319-3.578535 2.828427-2.828427 3.578535-2.078319 4-1.060812 4 0 4 1.060812 3.578535 2.078319 2.828427 2.828427 2.078319 3.578535 1.060812 4 0 4-1.060812 4-2.078319 3.578535-2.828427 2.828427-3.578535 2.078319-4 1.060812-4 0-4-1.060812-3.578535-2.078319-2.828427-2.828427-2.078319-3.578535-1.060812-4 0-4Z"/>
<path transform="matrix(1,0,0,-1,686.92636,90.03752)" stroke-width="1" stroke-linecap="butt" stroke-linejoin="round" fill="none" stroke="#000000" d="M0-4C1.060812-4 2.078319-3.578535 2.828427-2.828427 3.578535-2.078319 4-1.060812 4 0 4 1.060812 3.578535 2.078319 2.828427 2.828427 2.078319 3.578535 1.060812 4 0 4-1.060812 4-2.078319 3.578535-2.828427 2.828427-3.578535 2.078319-4 1.060812-4 0-4-1.060812-3.578535-2.078319-2.828427-2.828427-2.078319-3.578535-1.060812-4 0-4Z"/>
</g>
<g clip-path="url(#clip_49)">
<path transform="matrix(1,0,0,-1,703.5512,80.46094)" d="M0-4C1.060812-4 2.078319-3.578535 2.828427-2.828427 3.578535-2.078319 4-1.060812 4 0 4 1.060812 3.578535 2.078319 2.828427 2.828427 2.078319 3.578535 1.060812 4 0 4-1.060812 4-2.078319 3.578535-2.828427 2.828427-3.578535 2.078319-4 1.060812-4 0-4-1.060812-3.578535-2.078319-2.828427-2.828427-2.078319-3.578535-1.060812-4 0-4Z"/>
<path transform="matrix(1,0,0,-1,703.5512,80.46094)" stroke-width="1" stroke-linecap="butt" stroke-linejoin="round" fill="none" stroke="#000000" d="M0-4C1.060812-4 2.078319-3.578535 2.828427-2.828427 3.578535-2.078319 4-1.060812 4 0 4 1.060812 3.578535 2.078319 2.828427 2.828427 2.078319 3.578535 1.060812 4 0 4-1.060812 4-2.078319 3.578535-2.828427 2.828427-3.578535 2.078319-4 1.060812-4 0-4-1.060812-3.578535-2.078319-2.828427-2.828427-2.078319-3.578535-1.060812-4 0-4Z"/>
</g>
<g clip-path="url(#clip_50)">
<path transform="matrix(1,0,0,-1,720.1761,80.46094)" d="M0-4C1.060812-4 2.078319-3.578535 2.828427-2.828427 3.578535-2.078319 4-1.060812 4 0 4 1.060812 3.578535 2.078319 2.828427 2.828427 2.078319 3.578535 1.060812 4 0 4-1.060812 4-2.078319 3.578535-2.828427 2.828427-3.578535 2.078319-4 1.060812-4 0-4-1.060812-3.578535-2.078319-2.828427-2.828427-2.078319-3.578535-1.060812-4 0-4Z"/>
<path transform="matrix(1,0,0,-1,720.1761,80.46094)" stroke-width="1" stroke-linecap="butt" stroke-linejoin="round" fill="none" stroke="#000000" d="M0-4C1.060812-4 2.078319-3.578535 2.828427-2.828427 3.578535-2.078319 4-1.060812 4 0 4 1.060812 3.578535 2.078319 2.828427 2.828427 2.078319 3.578535 1.060812 4 0 4-1.060812 4-2.078319 3.578535-2.828427 2.828427-3.578535 2.078319-4 1.060812-4 0-4-1.060812-3.578535-2.078319-2.828427-2.828427-2.078319-3.578535-1.060812-4 0-4Z"/>
</g>
<g clip-path="url(#clip_51)">
<path transform="matrix(1,0,0,-1,736.80099,80.46094)" d="M0-4C1.060812-4 2.078319-3.578535 2.828427-2.828427 3.578535-2.078319 4-1.060812 4 0 4 1.060812 3.578535 2.078319 2.828427 2.828427 2.078319 3.578535 1.060812 4 0 4-1.060812 4-2.078319 3.578535-2.828427 2.828427-3.578535 2.078319-4 1.060812-4 0-4-1.060812-3.578535-2.078319-2.828427-2.828427-2.078319-3.578535-1.060812-4 0-4Z"/>
<path transform="matrix(1,0,0,-1,736.80099,80.46094)" stroke-width="1" stroke-linecap="butt" stroke-linejoin="round" fill="none" stroke="#000000" d="M0-4C1.060812-4 2.078319-3.578535 2.828427-2.828427 3.578535-2.078319 4-1.060812 4 0 4 1.060812 3.578535 2.078319 2.828427 2.828427 2.078319 3.578535 1.060812 4 0 4-1.060812 4-2.078319 3.578535-2.828427 2.828427-3.578535 2.078319-4 1.060812-4 0-4-1.060812-3.578535-2.078319-2.828427-2.828427-2.078319-3.578535-1.060812-4 0-4Z"/>
</g>
<g clip-path="url(#clip_52)">
<path transform="matrix(1,0,0,-1,753.42587,61.307764)" d="M0-4C1.060812-4 2.078319-3.578535 2.828427-2.828427 3.578535-2.078319 4-1.060812 4 0 4 1.060812 3.578535 2.078319 2.828427 2.828427 2.078319 3.578535 1.060812 4 0 4-1.060812 4-2.078319 3.578535-2.828427 2.828427-3.578535 2.078319-4 1.060812-4 0-4-1.060812-3.578535-2.078319-2.828427-2.828427-2.078319-3.578535-1.060812-4 0-4Z"/>
<path transform="matrix(1,0,0,-1,753.42587,61.307764)" stroke-width="1" stroke-linecap="butt" stroke-linejoin="round" fill="none" stroke="#000000" d="M0-4C1.060812-4 2.078319-3.578535 2.828427-2.828427 3.578535-2.078319 4-1.060812 4 0 4 1.060812 3.578535 2.078319 2.828427 2.828427 2.078319 3.578535 1.060812 4 0 4-1.060812 4-2.078319 3.578535-2.828427 2.828427-3.578535 2.078319-4 1.060812-4 0-4-1.060812-3.578535-2.078319-2.828427-2.828427-2.078319-3.578535-1.060812-4 0-4Z"/>
</g>
<g clip-path="url(#clip_53)">
<path transform="matrix(1,0,0,-1,770.0507,61.307764)" d="M0-4C1.060812-4 2.078319-3.578535 2.828427-2.828427 3.578535-2.078319 4-1.060812 4 0 4 1.060812 3.578535 2.078319 2.828427 2.828427 2.078319 3.578535 1.060812 4 0 4-1.060812 4-2.078319 3.578535-2.828427 2.828427-3.578535 2.078319-4 1.060812-4 0-4-1.060812-3.578535-2.078319-2.828427-2.828427-2.078319-3.578535-1.060812-4 0-4Z"/>
<path transform="matrix(1,0,0,-1,770.0507,61.307764)" stroke-width="1" stroke-linecap="butt" stroke-linejoin="round" fill="none" stroke="#000000" d="M0-4C1.060812-4 2.078319-3.578535 2.828427-2.828427 3.578535-2.078319 4-1.060812 4 0 4 1.060812 3.578535 2.078319 2.828427 2.828427 2.078319 3.578535 1.060812 4 0 4-1.060812 4-2.078319 3.578535-2.828427 2.828427-3.578535 2.078319-4 1.060812-4 0-4-1.060812-3.578535-2.078319-2.828427-2.828427-2.078319-3.578535-1.060812-4 0-4Z"/>
</g>
<g clip-path="url(#clip_54)">
<path transform="matrix(1,0,0,-1,786.6756,61.307764)" d="M0-4C1.060812-4 2.078319-3.578535 2.828427-2.828427 3.578535-2.078319 4-1.060812 4 0 4 1.060812 3.578535 2.078319 2.828427 2.828427 2.078319 3.578535 1.060812 4 0 4-1.060812 4-2.078319 3.578535-2.828427 2.828427-3.578535 2.078319-4 1.060812-4 0-4-1.060812-3.578535-2.078319-2.828427-2.828427-2.078319-3.578535-1.060812-4 0-4Z"/>
<path transform="matrix(1,0,0,-1,786.6756,61.307764)" stroke-width="1" stroke-linecap="butt" stroke-linejoin="round" fill="none" stroke="#000000" d="M0-4C1.060812-4 2.078319-3.578535 2.828427-2.828427 3.578535-2.078319 4-1.060812 4 0 4 1.060812 3.578535 2.078319 2.828427 2.828427 2.078319 3.578535 1.060812 4 0 4-1.060812 4-2.078319 3.578535-2.828427 2.828427-3.578535 2.078319-4 1.060812-4 0-4-1.060812-3.578535-2.078319-2.828427-2.828427-2.078319-3.578535-1.060812-4 0-4Z"/>
</g>
<g clip-path="url(#clip_55)">
<path transform="matrix(1,0,0,-1,803.3005,51.731176)" d="M0-4C1.060812-4 2.078319-3.578535 2.828427-2.828427 3.578535-2.078319 4-1.060812 4 0 4 1.060812 3.578535 2.078319 2.828427 2.828427 2.078319 3.578535 1.060812 4 0 4-1.060812 4-2.078319 3.578535-2.828427 2.828427-3.578535 2.078319-4 1.060812-4 0-4-1.060812-3.578535-2.078319-2.828427-2.828427-2.078319-3.578535-1.060812-4 0-4Z"/>
<path transform="matrix(1,0,0,-1,803.3005,51.731176)" stroke-width="1" stroke-linecap="butt" stroke-linejoin="round" fill="none" stroke="#000000" d="M0-4C1.060812-4 2.078319-3.578535 2.828427-2.828427 3.578535-2.078319 4-1.060812 4 0 4 1.060812 3.578535 2.078319 2.828427 2.828427 2.078319 3.578535 1.060812 4 0 4-1.060812 4-2.078319 3.578535-2.828427 2.828427-3.578535 2.078319-4 1.060812-4 0-4-1.060812-3.578535-2.078319-2.828427-2.828427-2.078319-3.578535-1.060812-4 0-4Z"/>
</g>
<g clip-path="url(#clip_56)">
<path transform="matrix(1,0,0,-1,819.92538,51.731176)" d="M0-4C1.060812-4 2.078319-3.578535 2.828427-2.828427 3.578535-2.078319 4-1.060812 4 0 4 1.060812 3.578535 2.078319 2.828427 2.828427 2.078319 3.578535 1.060812 4 0 4-1.060812 4-2.078319 3.578535-2.828427 2.828427-3.578535 2.078319-4 1.060812-4 0-4-1.060812-3.578535-2.078319-2.828427-2.828427-2.078319-3.578535-1.060812-4 0-4Z"/>
<path transform="matrix(1,0,0,-1,819.92538,51.731176)" stroke-width="1" stroke-linecap="butt" stroke-linejoin="round" fill="none" stroke="#000000" d="M0-4C1.060812-4 2.078319-3.578535 2.828427-2.828427 3.578535-2.078319 4-1.060812 4 0 4 1.060812 3.578535 2.078319 2.828427 2.828427 2.078319 3.578535 1.060812 4 0 4-1.060812 4-2.078319 3.578535-2.828427 2.828427-3.578535 2.078319-4 1.060812-4 0-4-1.060812-3.578535-2.078319-2.828427-2.828427-2.078319-3.578535-1.060812-4 0-4Z"/>
</g>
<g clip-path="url(#clip_57)">
<path transform="matrix(1,0,0,-1,836.55026,51.731176)" d="M0-4C1.060812-4 2.078319-3.578535 2.828427-2.828427 3.578535-2.078319 4-1.060812 4 0 4 1.060812 3.578535 2.078319 2.828427 2.828427 2.078319 3.578535 1.060812 4 0 4-1.060812 4-2.078319 3.578535-2.828427 2.828427-3.578535 2.078319-4 1.060812-4 0-4-1.060812-3.578535-2.078319-2.828427-2.828427-2.078319-3.578535-1.060812-4 0-4Z"/>
<path transform="matrix(1,0,0,-1,836.55026,51.731176)" stroke-width="1" stroke-linecap="butt" stroke-linejoin="round" fill="none" stroke="#000000" d="M0-4C1.060812-4 2.078319-3.578535 2.828427-2.828427 3.578535-2.078319 4-1.060812 4 0 4 1.060812 3.578535 2.078319 2.828427 2.828427 2.078319 3.578535 1.060812 4 0 4-1.060812 4-2.078319 3.578535-2.828427 2.828427-3.578535 2.078319-4 1.060812-4 0-4-1.060812-3.578535-2.078319-2.828427-2.828427-2.078319-3.578535-1.060812-4 0-4Z"/>
</g>
<g clip-path="url(#clip_58)">
<path transform="matrix(1,0,0,-1,853.1751,51.731176)" d="M0-4C1.060812-4 2.078319-3.578535 2.828427-2.828427 3.578535-2.078319 4-1.060812 4 0 4 1.060812 3.578535 2.078319 2.828427 2.828427 2.078319 3.578535 1.060812 4 0 4-1.060812 4-2.078319 3.578535-2.828427 2.828427-3.578535 2.078319-4 1.060812-4 0-4-1.060812-3.578535-2.078319-2.828427-2.828427-2.078319-3.578535-1.060812-4 0-4Z"/>
<path transform="matrix(1,0,0,-1,853.1751,51.731176)" stroke-width="1" stroke-linecap="butt" stroke-linejoin="round" fill="none" stroke="#000000" d="M0-4C1.060812-4 2.078319-3.578535 2.828427-2.828427 3.578535-2.078319 4-1.060812 4 0 4 1.060812 3.578535 2.078319 2.828427 2.828427 2.078319 3.578535 1.060812 4 0 4-1.060812 4-2.078319 3.578535-2.828427 2.828427-3.578535 2.078319-4 1.060812-4 0-4-1.060812-3.578535-2.078319-2.828427-2.828427-2.078319-3.578535-1.060812-4 0-4Z"/>
</g>
<g clip-path="url(#clip_59)">
<path transform="matrix(1,0,0,-1,869.8,42.154588)" d="M0-4C1.060812-4 2.078319-3.578535 2.828427-2.828427 3.578535-2.078319 4-1.060812 4 0 4 1.060812 3.578535 2.078319 2.828427 2.828427 2.078319 3.578535 1.060812 4 0 4-1.060812 4-2.078319 3.578535-2.828427 2.828427-3.578535 2.078319-4 1.060812-4 0-4-1.060812-3.578535-2.078319-2.828427-2.828427-2.078319-3.578535-1.060812-4 0-4Z"/>
<path transform="matrix(1,0,0,-1,869.8,42.154588)" stroke-width="1" stroke-linecap="butt" stroke-linejoin="round" fill="none" stroke="#000000" d="M0-4C1.060812-4 2.078319-3.578535 2.828427-2.828427 3.578535-2.078319 4-1.060812 4 0 4 1.060812 3.578535 2.078319 2.828427 2.828427 2.078319 3.578535 1.060812 4 0 4-1.060812 4-2.078319 3.578535-2.828427 2.828427-3.578535 2.078319-4 1.060812-4 0-4-1.060812-3.578535-2.078319-2.828427-2.828427-2.078319-3.578535-1.060812-4 0-4Z"/>
</g>
<g clip-path="url(#clip_60)">
<path transform="matrix(1,0,0,-1,886.42489,42.154588)" d="M0-4C1.060812-4 2.078319-3.578535 2.828427-2.828427 3.578535-2.078319 4-1.060812 4 0 4 1.060812 3.578535 2.078319 2.828427 2.828427 2.078319 3.578535 1.060812 4 0 4-1.060812 4-2.078319 3.578535-2.828427 2.828427-3.578535 2.078319-4 1.060812-4 0-4-1.060812-3.578535-2.078319-2.828427-2.828427-2.078319-3.578535-1.060812-4 0-4Z"/>
<path transform="matrix(1,0,0,-1,886.42489,42.154588)" stroke-width="1" stroke-linecap="butt" stroke-linejoin="round" fill="none" stroke="#000000" d="M0-4C1.060812-4 2.078319-3.578535 2.828427-2.828427 3.578535-2.078319 4-1.060812 4 0 4 1.060812 3.578535 2.078319 2.828427 2.828427 2.078319 3.578535 1.060812 4 0 4-1.060812 4-2.078319 3.578535-2.828427 2.828427-3.578535 2.078319-4 1.060812-4 0-4-1.060812-3.578535-2.078319-2.828427-2.828427-2.078319-3.578535-1.060812-4 0-4Z"/>
</g>
<g clip-path="url(#clip_61)">
<path transform="matrix(1,0,0,-1,903.04977,42.154588)" d="M0-4C1.060812-4 2.078319-3.578535 2.828427-2.828427 3.578535-2.078319 4-1.060812 4 0 4 1.060812 3.578535 2.078319 2.828427 2.828427 2.078319 3.578535 1.060812 4 0 4-1.060812 4-2.078319 3.578535-2.828427 2.828427-3.578535 2.078319-4 1.060812-4 0-4-1.060812-3.578535-2.078319-2.828427-2.828427-2.078319-3.578535-1.060812-4 0-4Z"/>
<path transform="matrix(1,0,0,-1,903.04977,42.154588)" stroke-width="1" stroke-linecap="butt" stroke-linejoin="round" fill="none" stroke="#000000" d="M0-4C1.060812-4 2.078319-3.578535 2.828427-2.828427 3.578535-2.078319 4-1.060812 4 0 4 1.060812 3.578535 2.078319 2.828427 2.828427 2.078319 3.578535 1.060812 4 0 4-1.060812 4-2.078319 3.578535-2.828427 2.828427-3.578535 2.078319-4 1.060812-4 0-4-1.060812-3.578535-2.078319-2.828427-2.828427-2.078319-3.578535-1.060812-4 0-4Z"/>
</g>
<g clip-path="url(#clip_62)">
<path transform="matrix(1,0,0,-1,919.6746,42.154588)" d="M0-4C1.060812-4 2.078319-3.578535 2.828427-2.828427 3.578535-2.078319 4-1.060812 4 0 4 1.060812 3.578535 2.078319 2.828427 2.828427 2.078319 3.578535 1.060812 4 0 4-1.060812 4-2.078319 3.578535-2.828427 2.828427-3.578535 2.078319-4 1.060812-4 0-4-1.060812-3.578535-2.078319-2.828427-2.828427-2.078319-3.578535-1.060812-4 0-4Z"/>
<path transform="matrix(1,0,0,-1,919.6746,42.154588)" stroke-width="1" stroke-linecap="butt" stroke-linejoin="round" fill="none" stroke="#000000" d="M0-4C1.060812-4 2.078319-3.578535 2.828427-2.828427 3.578535-2.078319 4-1.060812 4 0 4 1.060812 3.578535 2.078319 2.828427 2.828427 2.078319 3.578535 1.060812 4 0 4-1.060812 4-2.078319 3.578535-2.828427 2.828427-3.578535 2.078319-4 1.060812-4 0-4-1.060812-3.578535-2.078319-2.828427-2.828427-2.078319-3.578535-1.060812-4 0-4Z"/>
</g>
<g clip-path="url(#clip_63)">
<path transform="matrix(1,0,0,-1,936.2995,42.154588)" d="M0-4C1.060812-4 2.078319-3.578535 2.828427-2.828427 3.578535-2.078319 4-1.060812 4 0 4 1.060812 3.578535 2.078319 2.828427 2.828427 2.078319 3.578535 1.060812 4 0 4-1.060812 4-2.078319 3.578535-2.828427 2.828427-3.578535 2.078319-4 1.060812-4 0-4-1.060812-3.578535-2.078319-2.828427-2.828427-2.078319-3.578535-1.060812-4 0-4Z"/>
<path transform="matrix(1,0,0,-1,936.2995,42.154588)" stroke-width="1" stroke-linecap="butt" stroke-linejoin="round" fill="none" stroke="#000000" d="M0-4C1.060812-4 2.078319-3.578535 2.828427-2.828427 3.578535-2.078319 4-1.060812 4 0 4 1.060812 3.578535 2.078319 2.828427 2.828427 2.078319 3.578535 1.060812 4 0 4-1.060812 4-2.078319 3.578535-2.828427 2.828427-3.578535 2.078319-4 1.060812-4 0-4-1.060812-3.578535-2.078319-2.828427-2.828427-2.078319-3.578535-1.060812-4 0-4Z"/>
</g>
<g clip-path="url(#clip_64)">
<path transform="matrix(1,0,0,-1,952.9244,42.154588)" d="M0-4C1.060812-4 2.078319-3.578535 2.828427-2.828427 3.578535-2.078319 4-1.060812 4 0 4 1.060812 3.578535 2.078319 2.828427 2.828427 2.078319 3.578535 1.060812 4 0 4-1.060812 4-2.078319 3.578535-2.828427 2.828427-3.578535 2.078319-4 1.060812-4 0-4-1.060812-3.578535-2.078319-2.828427-2.828427-2.078319-3.578535-1.060812-4 0-4Z"/>
<path transform="matrix(1,0,0,-1,952.9244,42.154588)" stroke-width="1" stroke-linecap="butt" stroke-linejoin="round" fill="none" stroke="#000000" d="M0-4C1.060812-4 2.078319-3.578535 2.828427-2.828427 3.578535-2.078319 4-1.060812 4 0 4 1.060812 3.578535 2.078319 2.828427 2.828427 2.078319 3.578535 1.060812 4 0 4-1.060812 4-2.078319 3.578535-2.828427 2.828427-3.578535 2.078319-4 1.060812-4 0-4-1.060812-3.578535-2.078319-2.828427-2.828427-2.078319-3.578535-1.060812-4 0-4Z"/>
</g>
</g>
<g clip-path="url(#clip_65)">
<path transform="matrix(1,0,0,-1,0,856.35317)" stroke-width="2" stroke-linecap="butt" stroke-dasharray="7.4,3.2" stroke-linejoin="round" fill="none" stroke="#808080" d="M138.30591 115.10767 154.93077 220.45014 171.55564 249.1799 188.1805 268.33308 204.80536 325.7926 221.4302 364.09895 238.05507 392.8287H254.67993L271.3048 411.9819H287.92967 304.5545 321.17939 337.80424 354.4291L371.05397 431.13508 387.67884 440.71168H404.30369 420.92857L437.5534 450.28825 454.17826 479.018 470.80314 498.17118H487.42799L504.05287 507.74778H520.67776L537.30258 526.90097 553.9274 536.47756H570.5523 587.1771L603.802 546.05416 620.4269 555.63076H637.05178 653.6766L670.30148 565.2073 686.92636 574.7839H703.5512L720.176 584.3605H736.8009L753.4258 603.5137H770.0506 786.6755 803.30038 819.92526 836.55007 853.1749L869.7998 613.0902H886.4246L903.0495 632.2434 919.6744 641.82H936.29928 952.9241"/>
<g clip-path="url(#clip_66)">
<path transform="matrix(1,0,0,-1,138.30591,741.2455)" d="M-4-4H4V4H-4Z" fill="#808080"/>
<path transform="matrix(1,0,0,-1,138.30591,741.2455)" stroke-width="1" stroke-linecap="butt" stroke-miterlimit="10" stroke-linejoin="miter" fill="none" stroke="#808080" d="M-4-4H4V4H-4Z"/>
</g>
<g clip-path="url(#clip_67)">
<path transform="matrix(1,0,0,-1,154.93077,635.903)" d="M-4-4H4V4H-4Z" fill="#808080"/>
<path transform="matrix(1,0,0,-1,154.93077,635.903)" stroke-width="1" stroke-linecap="butt" stroke-miterlimit="10" stroke-linejoin="miter" fill="none" stroke="#808080" d="M-4-4H4V4H-4Z"/>
</g>
<g clip-path="url(#clip_68)">
<path transform="matrix(1,0,0,-1,171.55564,607.1733)" d="M-4-4H4V4H-4Z" fill="#808080"/>
<path transform="matrix(1,0,0,-1,171.55564,607.1733)" stroke-width="1" stroke-linecap="butt" stroke-miterlimit="10" stroke-linejoin="miter" fill="none" stroke="#808080" d="M-4-4H4V4H-4Z"/>
</g>
<g clip-path="url(#clip_69)">
<path transform="matrix(1,0,0,-1,188.1805,588.0201)" d="M-4-4H4V4H-4Z" fill="#808080"/>
<path transform="matrix(1,0,0,-1,188.1805,588.0201)" stroke-width="1" stroke-linecap="butt" stroke-miterlimit="10" stroke-linejoin="miter" fill="none" stroke="#808080" d="M-4-4H4V4H-4Z"/>
</g>
<g clip-path="url(#clip_70)">
<path transform="matrix(1,0,0,-1,204.80536,530.56057)" d="M-4-4H4V4H-4Z" fill="#808080"/>
<path transform="matrix(1,0,0,-1,204.80536,530.56057)" stroke-width="1" stroke-linecap="butt" stroke-miterlimit="10" stroke-linejoin="miter" fill="none" stroke="#808080" d="M-4-4H4V4H-4Z"/>
</g>
<g clip-path="url(#clip_71)">
<path transform="matrix(1,0,0,-1,221.43022,492.2542)" d="M-4-4H4V4H-4Z" fill="#808080"/>
<path transform="matrix(1,0,0,-1,221.43022,492.2542)" stroke-width="1" stroke-linecap="butt" stroke-miterlimit="10" stroke-linejoin="miter" fill="none" stroke="#808080" d="M-4-4H4V4H-4Z"/>
</g>
<g clip-path="url(#clip_72)">
<path transform="matrix(1,0,0,-1,238.05509,463.52445)" d="M-4-4H4V4H-4Z" fill="#808080"/>
<path transform="matrix(1,0,0,-1,238.05509,463.52445)" stroke-width="1" stroke-linecap="butt" stroke-miterlimit="10" stroke-linejoin="miter" fill="none" stroke="#808080" d="M-4-4H4V4H-4Z"/>
</g>
<g clip-path="url(#clip_73)">
<path transform="matrix(1,0,0,-1,254.67995,463.52445)" d="M-4-4H4V4H-4Z" fill="#808080"/>
<path transform="matrix(1,0,0,-1,254.67995,463.52445)" stroke-width="1" stroke-linecap="butt" stroke-miterlimit="10" stroke-linejoin="miter" fill="none" stroke="#808080" d="M-4-4H4V4H-4Z"/>
</g>
<g clip-path="url(#clip_74)">
<path transform="matrix(1,0,0,-1,271.3048,444.37129)" d="M-4-4H4V4H-4Z" fill="#808080"/>
<path transform="matrix(1,0,0,-1,271.3048,444.37129)" stroke-width="1" stroke-linecap="butt" stroke-miterlimit="10" stroke-linejoin="miter" fill="none" stroke="#808080" d="M-4-4H4V4H-4Z"/>
</g>
<g clip-path="url(#clip_75)">
<path transform="matrix(1,0,0,-1,287.92967,444.37129)" d="M-4-4H4V4H-4Z" fill="#808080"/>
<path transform="matrix(1,0,0,-1,287.92967,444.37129)" stroke-width="1" stroke-linecap="butt" stroke-miterlimit="10" stroke-linejoin="miter" fill="none" stroke="#808080" d="M-4-4H4V4H-4Z"/>
</g>
<g clip-path="url(#clip_76)">
<path transform="matrix(1,0,0,-1,304.5545,444.37129)" d="M-4-4H4V4H-4Z" fill="#808080"/>
<path transform="matrix(1,0,0,-1,304.5545,444.37129)" stroke-width="1" stroke-linecap="butt" stroke-miterlimit="10" stroke-linejoin="miter" fill="none" stroke="#808080" d="M-4-4H4V4H-4Z"/>
</g>
<g clip-path="url(#clip_77)">
<path transform="matrix(1,0,0,-1,321.17936,444.37129)" d="M-4-4H4V4H-4Z" fill="#808080"/>
<path transform="matrix(1,0,0,-1,321.17936,444.37129)" stroke-width="1" stroke-linecap="butt" stroke-miterlimit="10" stroke-linejoin="miter" fill="none" stroke="#808080" d="M-4-4H4V4H-4Z"/>
</g>
<g clip-path="url(#clip_78)">
<path transform="matrix(1,0,0,-1,337.8042,444.37129)" d="M-4-4H4V4H-4Z" fill="#808080"/>
<path transform="matrix(1,0,0,-1,337.8042,444.37129)" stroke-width="1" stroke-linecap="butt" stroke-miterlimit="10" stroke-linejoin="miter" fill="none" stroke="#808080" d="M-4-4H4V4H-4Z"/>
</g>
<g clip-path="url(#clip_79)">
<path transform="matrix(1,0,0,-1,354.42906,444.37129)" d="M-4-4H4V4H-4Z" fill="#808080"/>
<path transform="matrix(1,0,0,-1,354.42906,444.37129)" stroke-width="1" stroke-linecap="butt" stroke-miterlimit="10" stroke-linejoin="miter" fill="none" stroke="#808080" d="M-4-4H4V4H-4Z"/>
</g>
<g clip-path="url(#clip_80)">
<path transform="matrix(1,0,0,-1,371.0539,425.2181)" d="M-4-4H4V4H-4Z" fill="#808080"/>
<path transform="matrix(1,0,0,-1,371.0539,425.2181)" stroke-width="1" stroke-linecap="butt" stroke-miterlimit="10" stroke-linejoin="miter" fill="none" stroke="#808080" d="M-4-4H4V4H-4Z"/>
</g>
<g clip-path="url(#clip_81)">
<path transform="matrix(1,0,0,-1,387.67875,415.6415)" d="M-4-4H4V4H-4Z" fill="#808080"/>
<path transform="matrix(1,0,0,-1,387.67875,415.6415)" stroke-width="1" stroke-linecap="butt" stroke-miterlimit="10" stroke-linejoin="miter" fill="none" stroke="#808080" d="M-4-4H4V4H-4Z"/>
</g>
<g clip-path="url(#clip_82)">
<path transform="matrix(1,0,0,-1,404.3036,415.6415)" d="M-4-4H4V4H-4Z" fill="#808080"/>
<path transform="matrix(1,0,0,-1,404.3036,415.6415)" stroke-width="1" stroke-linecap="butt" stroke-miterlimit="10" stroke-linejoin="miter" fill="none" stroke="#808080" d="M-4-4H4V4H-4Z"/>
</g>
<g clip-path="url(#clip_83)">
<path transform="matrix(1,0,0,-1,420.92845,415.6415)" d="M-4-4H4V4H-4Z" fill="#808080"/>
<path transform="matrix(1,0,0,-1,420.92845,415.6415)" stroke-width="1" stroke-linecap="butt" stroke-miterlimit="10" stroke-linejoin="miter" fill="none" stroke="#808080" d="M-4-4H4V4H-4Z"/>
</g>
<g clip-path="url(#clip_84)">
<path transform="matrix(1,0,0,-1,437.55329,406.0649)" d="M-4-4H4V4H-4Z" fill="#808080"/>
<path transform="matrix(1,0,0,-1,437.55329,406.0649)" stroke-width="1" stroke-linecap="butt" stroke-miterlimit="10" stroke-linejoin="miter" fill="none" stroke="#808080" d="M-4-4H4V4H-4Z"/>
</g>
<g clip-path="url(#clip_85)">
<path transform="matrix(1,0,0,-1,454.17814,377.33515)" d="M-4-4H4V4H-4Z" fill="#808080"/>
<path transform="matrix(1,0,0,-1,454.17814,377.33515)" stroke-width="1" stroke-linecap="butt" stroke-miterlimit="10" stroke-linejoin="miter" fill="none" stroke="#808080" d="M-4-4H4V4H-4Z"/>
</g>
<g clip-path="url(#clip_86)">
<path transform="matrix(1,0,0,-1,470.80299,358.18199)" d="M-4-4H4V4H-4Z" fill="#808080"/>
<path transform="matrix(1,0,0,-1,470.80299,358.18199)" stroke-width="1" stroke-linecap="butt" stroke-miterlimit="10" stroke-linejoin="miter" fill="none" stroke="#808080" d="M-4-4H4V4H-4Z"/>
</g>
<g clip-path="url(#clip_87)">
<path transform="matrix(1,0,0,-1,487.42784,358.18199)" d="M-4-4H4V4H-4Z" fill="#808080"/>
<path transform="matrix(1,0,0,-1,487.42784,358.18199)" stroke-width="1" stroke-linecap="butt" stroke-miterlimit="10" stroke-linejoin="miter" fill="none" stroke="#808080" d="M-4-4H4V4H-4Z"/>
</g>
<g clip-path="url(#clip_88)">
<path transform="matrix(1,0,0,-1,504.05268,348.60539)" d="M-4-4H4V4H-4Z" fill="#808080"/>
<path transform="matrix(1,0,0,-1,504.05268,348.60539)" stroke-width="1" stroke-linecap="butt" stroke-miterlimit="10" stroke-linejoin="miter" fill="none" stroke="#808080" d="M-4-4H4V4H-4Z"/>
</g>
<g clip-path="url(#clip_89)">
<path transform="matrix(1,0,0,-1,520.67758,348.60539)" d="M-4-4H4V4H-4Z" fill="#808080"/>
<path transform="matrix(1,0,0,-1,520.67758,348.60539)" stroke-width="1" stroke-linecap="butt" stroke-miterlimit="10" stroke-linejoin="miter" fill="none" stroke="#808080" d="M-4-4H4V4H-4Z"/>
</g>
<g clip-path="url(#clip_90)">
<path transform="matrix(1,0,0,-1,537.3024,329.4522)" d="M-4-4H4V4H-4Z" fill="#808080"/>
<path transform="matrix(1,0,0,-1,537.3024,329.4522)" stroke-width="1" stroke-linecap="butt" stroke-miterlimit="10" stroke-linejoin="miter" fill="none" stroke="#808080" d="M-4-4H4V4H-4Z"/>
</g>
<g clip-path="url(#clip_91)">
<path transform="matrix(1,0,0,-1,553.9273,319.8756)" d="M-4-4H4V4H-4Z" fill="#808080"/>
<path transform="matrix(1,0,0,-1,553.9273,319.8756)" stroke-width="1" stroke-linecap="butt" stroke-miterlimit="10" stroke-linejoin="miter" fill="none" stroke="#808080" d="M-4-4H4V4H-4Z"/>
</g>
<g clip-path="url(#clip_92)">
<path transform="matrix(1,0,0,-1,570.5522,319.8756)" d="M-4-4H4V4H-4Z" fill="#808080"/>
<path transform="matrix(1,0,0,-1,570.5522,319.8756)" stroke-width="1" stroke-linecap="butt" stroke-miterlimit="10" stroke-linejoin="miter" fill="none" stroke="#808080" d="M-4-4H4V4H-4Z"/>
</g>
<g clip-path="url(#clip_93)">
<path transform="matrix(1,0,0,-1,587.17709,319.8756)" d="M-4-4H4V4H-4Z" fill="#808080"/>
<path transform="matrix(1,0,0,-1,587.17709,319.8756)" stroke-width="1" stroke-linecap="butt" stroke-miterlimit="10" stroke-linejoin="miter" fill="none" stroke="#808080" d="M-4-4H4V4H-4Z"/>
</g>
<g clip-path="url(#clip_94)">
<path transform="matrix(1,0,0,-1,603.80197,310.299)" d="M-4-4H4V4H-4Z" fill="#808080"/>
<path transform="matrix(1,0,0,-1,603.80197,310.299)" stroke-width="1" stroke-linecap="butt" stroke-miterlimit="10" stroke-linejoin="miter" fill="none" stroke="#808080" d="M-4-4H4V4H-4Z"/>
</g>
<g clip-path="url(#clip_95)">
<path transform="matrix(1,0,0,-1,620.4268,300.7224)" d="M-4-4H4V4H-4Z" fill="#808080"/>
<path transform="matrix(1,0,0,-1,620.4268,300.7224)" stroke-width="1" stroke-linecap="butt" stroke-miterlimit="10" stroke-linejoin="miter" fill="none" stroke="#808080" d="M-4-4H4V4H-4Z"/>
</g>
<g clip-path="url(#clip_96)">
<path transform="matrix(1,0,0,-1,637.0517,300.7224)" d="M-4-4H4V4H-4Z" fill="#808080"/>
<path transform="matrix(1,0,0,-1,637.0517,300.7224)" stroke-width="1" stroke-linecap="butt" stroke-miterlimit="10" stroke-linejoin="miter" fill="none" stroke="#808080" d="M-4-4H4V4H-4Z"/>
</g>
<g clip-path="url(#clip_97)">
<path transform="matrix(1,0,0,-1,653.6766,300.7224)" d="M-4-4H4V4H-4Z" fill="#808080"/>
<path transform="matrix(1,0,0,-1,653.6766,300.7224)" stroke-width="1" stroke-linecap="butt" stroke-miterlimit="10" stroke-linejoin="miter" fill="none" stroke="#808080" d="M-4-4H4V4H-4Z"/>
</g>
<g clip-path="url(#clip_98)">
<path transform="matrix(1,0,0,-1,670.30148,291.1458)" d="M-4-4H4V4H-4Z" fill="#808080"/>
<path transform="matrix(1,0,0,-1,670.30148,291.1458)" stroke-width="1" stroke-linecap="butt" stroke-miterlimit="10" stroke-linejoin="miter" fill="none" stroke="#808080" d="M-4-4H4V4H-4Z"/>
</g>
<g clip-path="url(#clip_99)">
<path transform="matrix(1,0,0,-1,686.92636,281.5692)" d="M-4-4H4V4H-4Z" fill="#808080"/>
<path transform="matrix(1,0,0,-1,686.92636,281.5692)" stroke-width="1" stroke-linecap="butt" stroke-miterlimit="10" stroke-linejoin="miter" fill="none" stroke="#808080" d="M-4-4H4V4H-4Z"/>
</g>
<g clip-path="url(#clip_100)">
<path transform="matrix(1,0,0,-1,703.5512,281.5692)" d="M-4-4H4V4H-4Z" fill="#808080"/>
<path transform="matrix(1,0,0,-1,703.5512,281.5692)" stroke-width="1" stroke-linecap="butt" stroke-miterlimit="10" stroke-linejoin="miter" fill="none" stroke="#808080" d="M-4-4H4V4H-4Z"/>
</g>
<g clip-path="url(#clip_101)">
<path transform="matrix(1,0,0,-1,720.1761,271.9926)" d="M-4-4H4V4H-4Z" fill="#808080"/>
<path transform="matrix(1,0,0,-1,720.1761,271.9926)" stroke-width="1" stroke-linecap="butt" stroke-miterlimit="10" stroke-linejoin="miter" fill="none" stroke="#808080" d="M-4-4H4V4H-4Z"/>
</g>
<g clip-path="url(#clip_102)">
<path transform="matrix(1,0,0,-1,736.80099,271.9926)" d="M-4-4H4V4H-4Z" fill="#808080"/>
<path transform="matrix(1,0,0,-1,736.80099,271.9926)" stroke-width="1" stroke-linecap="butt" stroke-miterlimit="10" stroke-linejoin="miter" fill="none" stroke="#808080" d="M-4-4H4V4H-4Z"/>
</g>
<g clip-path="url(#clip_103)">
<path transform="matrix(1,0,0,-1,753.42587,252.83945)" d="M-4-4H4V4H-4Z" fill="#808080"/>
<path transform="matrix(1,0,0,-1,753.42587,252.83945)" stroke-width="1" stroke-linecap="butt" stroke-miterlimit="10" stroke-linejoin="miter" fill="none" stroke="#808080" d="M-4-4H4V4H-4Z"/>
</g>
<g clip-path="url(#clip_104)">
<path transform="matrix(1,0,0,-1,770.0507,252.83945)" d="M-4-4H4V4H-4Z" fill="#808080"/>
<path transform="matrix(1,0,0,-1,770.0507,252.83945)" stroke-width="1" stroke-linecap="butt" stroke-miterlimit="10" stroke-linejoin="miter" fill="none" stroke="#808080" d="M-4-4H4V4H-4Z"/>
</g>
<g clip-path="url(#clip_105)">
<path transform="matrix(1,0,0,-1,786.6756,252.83945)" d="M-4-4H4V4H-4Z" fill="#808080"/>
<path transform="matrix(1,0,0,-1,786.6756,252.83945)" stroke-width="1" stroke-linecap="butt" stroke-miterlimit="10" stroke-linejoin="miter" fill="none" stroke="#808080" d="M-4-4H4V4H-4Z"/>
</g>
<g clip-path="url(#clip_106)">
<path transform="matrix(1,0,0,-1,803.3005,252.83945)" d="M-4-4H4V4H-4Z" fill="#808080"/>
<path transform="matrix(1,0,0,-1,803.3005,252.83945)" stroke-width="1" stroke-linecap="butt" stroke-miterlimit="10" stroke-linejoin="miter" fill="none" stroke="#808080" d="M-4-4H4V4H-4Z"/>
</g>
<g clip-path="url(#clip_107)">
<path transform="matrix(1,0,0,-1,819.92538,252.83945)" d="M-4-4H4V4H-4Z" fill="#808080"/>
<path transform="matrix(1,0,0,-1,819.92538,252.83945)" stroke-width="1" stroke-linecap="butt" stroke-miterlimit="10" stroke-linejoin="miter" fill="none" stroke="#808080" d="M-4-4H4V4H-4Z"/>
</g>
<g clip-path="url(#clip_108)">
<path transform="matrix(1,0,0,-1,836.55026,252.83945)" d="M-4-4H4V4H-4Z" fill="#808080"/>
<path transform="matrix(1,0,0,-1,836.55026,252.83945)" stroke-width="1" stroke-linecap="butt" stroke-miterlimit="10" stroke-linejoin="miter" fill="none" stroke="#808080" d="M-4-4H4V4H-4Z"/>
</g>
<g clip-path="url(#clip_109)">
<path transform="matrix(1,0,0,-1,853.1751,252.83945)" d="M-4-4H4V4H-4Z" fill="#808080"/>
<path transform="matrix(1,0,0,-1,853.1751,252.83945)" stroke-width="1" stroke-linecap="butt" stroke-miterlimit="10" stroke-linejoin="miter" fill="none" stroke="#808080" d="M-4-4H4V4H-4Z"/>
</g>
<g clip-path="url(#clip_110)">
<path transform="matrix(1,0,0,-1,869.8,243.26287)" d="M-4-4H4V4H-4Z" fill="#808080"/>
<path transform="matrix(1,0,0,-1,869.8,243.26287)" stroke-width="1" stroke-linecap="butt" stroke-miterlimit="10" stroke-linejoin="miter" fill="none" stroke="#808080" d="M-4-4H4V4H-4Z"/>
</g>
<g clip-path="url(#clip_111)">
<path transform="matrix(1,0,0,-1,886.42489,243.26287)" d="M-4-4H4V4H-4Z" fill="#808080"/>
<path transform="matrix(1,0,0,-1,886.42489,243.26287)" stroke-width="1" stroke-linecap="butt" stroke-miterlimit="10" stroke-linejoin="miter" fill="none" stroke="#808080" d="M-4-4H4V4H-4Z"/>
</g>
<g clip-path="url(#clip_112)">
<path transform="matrix(1,0,0,-1,903.04977,224.10968)" d="M-4-4H4V4H-4Z" fill="#808080"/>
<path transform="matrix(1,0,0,-1,903.04977,224.10968)" stroke-width="1" stroke-linecap="butt" stroke-miterlimit="10" stroke-linejoin="miter" fill="none" stroke="#808080" d="M-4-4H4V4H-4Z"/>
</g>
<g clip-path="url(#clip_113)">
<path transform="matrix(1,0,0,-1,919.6746,214.5331)" d="M-4-4H4V4H-4Z" fill="#808080"/>
<path transform="matrix(1,0,0,-1,919.6746,214.5331)" stroke-width="1" stroke-linecap="butt" stroke-miterlimit="10" stroke-linejoin="miter" fill="none" stroke="#808080" d="M-4-4H4V4H-4Z"/>
</g>
<g clip-path="url(#clip_114)">
<path transform="matrix(1,0,0,-1,936.2995,214.5331)" d="M-4-4H4V4H-4Z" fill="#808080"/>
<path transform="matrix(1,0,0,-1,936.2995,214.5331)" stroke-width="1" stroke-linecap="butt" stroke-miterlimit="10" stroke-linejoin="miter" fill="none" stroke="#808080" d="M-4-4H4V4H-4Z"/>
</g>
<g clip-path="url(#clip_115)">
<path transform="matrix(1,0,0,-1,952.9244,214.5331)" d="M-4-4H4V4H-4Z" fill="#808080"/>
<path transform="matrix(1,0,0,-1,952.9244,214.5331)" stroke-width="1" stroke-linecap="butt" stroke-miterlimit="10" stroke-linejoin="miter" fill="none" stroke="#808080" d="M-4-4H4V4H-4Z"/>
</g>
</g>
<path transform="matrix(1,0,0,-1,0,856.35317)" stroke-width=".8" stroke-linecap="square" stroke-miterlimit="10" stroke-linejoin="miter" fill="none" stroke="#000000" d="M97.575 80.15312V849.15316"/>
<path transform="matrix(1,0,0,-1,0,856.35317)" stroke-width=".8" stroke-linecap="square" stroke-miterlimit="10" stroke-linejoin="miter" fill="none" stroke="#000000" d="M993.655 80.15312V849.15316"/>
<path transform="matrix(1,0,0,-1,0,856.35317)" stroke-width=".8" stroke-linecap="square" stroke-miterlimit="10" stroke-linejoin="miter" fill="none" stroke="#000000" d="M97.575 80.15312H993.655"/>
<path transform="matrix(1,0,0,-1,0,856.35317)" stroke-width=".8" stroke-linecap="square" stroke-miterlimit="10" stroke-linejoin="miter" fill="none" stroke="#000000" d="M97.575 849.15316H993.655"/>
<g>
<path transform="matrix(1,0,0,-1,0,856.35317)" d="M249.86125 94.15312H974.055C977.7883 94.15312 979.655 96.01979 979.655 99.75313V179.17188C979.655 182.90522 977.7883 184.77188 974.055 184.77188H249.86125C246.12792 184.77188 244.26125 182.90522 244.26125 179.17188V99.75313C244.26125 96.01979 246.12792 94.15312 249.86125 94.15312Z" fill="#ffffff" fill-opacity=".8"/>
<path transform="matrix(1,0,0,-1,0,856.35317)" stroke-width="1" stroke-linecap="butt" stroke-miterlimit="10" stroke-linejoin="miter" fill="none" stroke="#cccccc" stroke-opacity=".8" d="M249.86125 94.15312H974.055C977.7883 94.15312 979.655 96.01979 979.655 99.75313V179.17188C979.655 182.90522 977.7883 184.77188 974.055 184.77188H249.86125C246.12792 184.77188 244.26125 182.90522 244.26125 179.17188V99.75313C244.26125 96.01979 246.12792 94.15312 249.86125 94.15312Z"/>
</g>
<path transform="matrix(1,0,0,-1,0,856.35317)" stroke-width="2" stroke-linecap="square" stroke-linejoin="round" fill="none" stroke="#000000" d="M255.46125 162.09062H283.46125 311.46125"/>
<path transform="matrix(1,0,0,-1,0,856.35317)" d="M283.46125 158.09062C284.52207 158.09062 285.53959 158.51209 286.28968 159.26219 287.0398 160.0123 287.46125 161.02982 287.46125 162.09062 287.46125 163.15145 287.0398 164.16895 286.28968 164.91905 285.53959 165.66916 284.52207 166.09062 283.46125 166.09062 282.40046 166.09062 281.38294 165.66916 280.6328 164.91905 279.88273 164.16895 279.46125 163.15145 279.46125 162.09062 279.46125 161.02982 279.88273 160.0123 280.6328 159.26219 281.38294 158.51209 282.40046 158.09062 283.46125 158.09062Z"/>
<path transform="matrix(1,0,0,-1,0,856.35317)" stroke-width="1" stroke-linecap="butt" stroke-linejoin="round" fill="none" stroke="#000000" d="M283.46125 158.09062C284.52207 158.09062 285.53959 158.51209 286.28968 159.26219 287.0398 160.0123 287.46125 161.02982 287.46125 162.09062 287.46125 163.15145 287.0398 164.16895 286.28968 164.91905 285.53959 165.66916 284.52207 166.09062 283.46125 166.09062 282.40046 166.09062 281.38294 165.66916 280.6328 164.91905 279.88273 164.16895 279.46125 163.15145 279.46125 162.09062 279.46125 161.02982 279.88273 160.0123 280.6328 159.26219 281.38294 158.51209 282.40046 158.09062 283.46125 158.09062Z"/>
<text xml:space="preserve" transform="matrix(1 0 -0 1 333.86125 704.0625)" font-size="28" font-family="DejaVuSans"><tspan y="0" x="0 18.667626 29.643628 40.61963 57.83963 75.59163 86.56763 94.35163 111.48763 129.23964 147.01964 154.80364 182.07564 189.85964 197.64363 214.80764 226.31563 234.09963 245.07563 261.6516 270.5556 294.0196 302.92359 315.9222 327.4302 335.2142 352.9942 360.7782 377.9982 388.9742 397.8782 415.6582 431.0582 448.8102 466.0302 483.8102 501.56224 509.34623 526.5662 535.4702 546.3902 556.2462 573.9982 588.58627 605.8063 623.5863">AttentionSimilarity + Triplet Schedule (fused)</tspan></text>
<path transform="matrix(1,0,0,-1,0,856.35317)" stroke-width="2" stroke-linecap="butt" stroke-dasharray="7.4,3.2" stroke-linejoin="round" fill="none" stroke="#808080" d="M255.46125 120.98125H283.46125 311.46125"/>
<path transform="matrix(1,0,0,-1,0,856.35317)" d="M279.46125 116.98125H287.46125V124.98125H279.46125Z" fill="#808080"/>
<path transform="matrix(1,0,0,-1,0,856.35317)" stroke-width="1" stroke-linecap="butt" stroke-miterlimit="10" stroke-linejoin="miter" fill="none" stroke="#808080" d="M279.46125 116.98125H287.46125V124.98125H279.46125Z"/>
<text xml:space="preserve" transform="matrix(1 0 -0 1 333.86125 745.1719)" font-size="28" font-family="DejaVuSans"><tspan y="0" x="0 19.544 36.68 51.268 59.052003 76.804 94.024 102.928 122.136 139.3 153.888 171.108 178.892 186.676 204.428 221.648 230.552 241.472 258.048 265.832 280.42 298.17204 315.33604 323.12004 332.02403 349.16004 366.91206 374.69606 391.27204">Cosine Baseline (visual only)</tspan></text>
</svg>
