<svg xmlns="http://www.w3.org/2000/svg" width="960" height="340">
  <rect width="100%" height="100%" fill="white"/>
  <text x="20" y="25" font-size="18" font-weight="bold">Re-ID Result Overview (Run 1)</text>
  <line x1="90" y1="40" x2="90" y2="280" stroke="#333"/>
  <line x1="90" y1="280" x2="880" y2="280" stroke="#333"/>
  <text x="20" y="45" font-size="12">100</text>
  <text x="30" y="285" font-size="12">0</text>
  <rect x="120" y="231.1" width="48" height="48.9" fill="#4C78A8"/><rect x="176" y="209.8" width="48" height="70.2" fill="#F58518"/><text x="144" y="223.1" font-size="12" text-anchor="middle">20.4</text><text x="200" y="201.8" font-size="12" text-anchor="middle">29.2</text><rect x="350" y="188.7" width="48" height="91.3" fill="#4C78A8"/><rect x="406" y="136.7" width="48" height="143.3" fill="#F58518"/><text x="374" y="180.7" font-size="12" text-anchor="middle">38.0</text><text x="430" y="128.7" font-size="12" text-anchor="middle">59.7</text><rect x="580" y="180.6" width="48" height="99.4" fill="#4C78A8"/><rect x="636" y="137.5" width="48" height="142.5" fill="#F58518"/><text x="604" y="172.6" font-size="12" text-anchor="middle">41.4</text><text x="660" y="129.5" font-size="12" text-anchor="middle">59.4</text>
  <text x="172" y="305" font-size="13" text-anchor="middle">OSR</text><text x="402" y="305" font-size="13" text-anchor="middle">mAP_fair</text><text x="632" y="305" font-size="13" text-anchor="middle">CMC1</text>
  <rect x="620" y="18" width="16" height="12" fill="#4C78A8"/><text x="642" y="28" font-size="12">Baseline (Cosine, Visual)</text>
  <rect x="790" y="18" width="16" height="12" fill="#F58518"/><text x="812" y="28" font-size="12">Proposed (Attention, Fused)</text>
</svg>